<mxfile host="app.diagrams.net" agent="Mozilla/5.0 (Windows NT 10.0; Win64; x64) AppleWebKit/537.36 (KHTML, like Gecko) Chrome/140.0.0.0 Safari/537.36" version="28.2.1">
  <diagram name="PÃ¡gina-1" id="V2syIyFZhOZ_xvvwbhYi">
    <mxGraphModel grid="1" page="1" gridSize="10" guides="1" tooltips="1" connect="1" arrows="1" fold="1" pageScale="1" pageWidth="1169" pageHeight="1654" math="0" shadow="0">
      <root>
        <mxCell id="0" />
        <mxCell id="1" parent="0" />
        <mxCell id="lvTp8gI4NO4fiL0DUp-w-21" value="" style="endArrow=none;html=1;rounded=0;" edge="1" parent="1">
          <mxGeometry width="50" height="50" relative="1" as="geometry">
            <mxPoint x="407" y="415" as="sourcePoint" />
            <mxPoint x="335" y="280" as="targetPoint" />
          </mxGeometry>
        </mxCell>
        <mxCell id="hb6JNQIEblsWoCDhx1Lz-166" value="" style="endArrow=none;html=1;rounded=0;" edge="1" parent="1">
          <mxGeometry width="50" height="50" relative="1" as="geometry">
            <mxPoint x="1220" y="220" as="sourcePoint" />
            <mxPoint x="1230" y="170" as="targetPoint" />
          </mxGeometry>
        </mxCell>
        <mxCell id="hb6JNQIEblsWoCDhx1Lz-165" value="" style="endArrow=none;html=1;rounded=0;entryX=0.7;entryY=0.92;entryDx=0;entryDy=0;entryPerimeter=0;" edge="1" parent="1">
          <mxGeometry width="50" height="50" relative="1" as="geometry">
            <mxPoint x="1118" y="220" as="sourcePoint" />
            <mxPoint x="1110" y="177" as="targetPoint" />
          </mxGeometry>
        </mxCell>
        <mxCell id="hb6JNQIEblsWoCDhx1Lz-159" value="" style="endArrow=none;html=1;rounded=0;entryX=1;entryY=0.5;entryDx=0;entryDy=0;" edge="1" parent="1">
          <mxGeometry width="50" height="50" relative="1" as="geometry">
            <mxPoint x="1129.9987961985216" y="249.5" as="sourcePoint" />
            <mxPoint x="1010" y="249.62671594508993" as="targetPoint" />
          </mxGeometry>
        </mxCell>
        <mxCell id="hb6JNQIEblsWoCDhx1Lz-158" value="" style="endArrow=none;html=1;rounded=0;entryX=1;entryY=0.5;entryDx=0;entryDy=0;" edge="1" parent="1">
          <mxGeometry width="50" height="50" relative="1" as="geometry">
            <mxPoint x="989.9987961985215" y="249.5" as="sourcePoint" />
            <mxPoint x="870" y="249.62671594508993" as="targetPoint" />
          </mxGeometry>
        </mxCell>
        <mxCell id="hb6JNQIEblsWoCDhx1Lz-155" value="" style="endArrow=none;html=1;rounded=0;" edge="1" parent="1">
          <mxGeometry width="50" height="50" relative="1" as="geometry">
            <mxPoint x="920" y="220" as="sourcePoint" />
            <mxPoint x="930" y="170" as="targetPoint" />
          </mxGeometry>
        </mxCell>
        <mxCell id="hb6JNQIEblsWoCDhx1Lz-154" value="" style="endArrow=none;html=1;rounded=0;entryX=0.7;entryY=0.92;entryDx=0;entryDy=0;entryPerimeter=0;" edge="1" parent="1" target="hb6JNQIEblsWoCDhx1Lz-147">
          <mxGeometry width="50" height="50" relative="1" as="geometry">
            <mxPoint x="820" y="220" as="sourcePoint" />
            <mxPoint x="820" y="180" as="targetPoint" />
          </mxGeometry>
        </mxCell>
        <mxCell id="hb6JNQIEblsWoCDhx1Lz-146" value="" style="endArrow=none;html=1;rounded=0;entryX=1;entryY=0.5;entryDx=0;entryDy=0;" edge="1" parent="1">
          <mxGeometry width="50" height="50" relative="1" as="geometry">
            <mxPoint x="829.9987961985215" y="249.5" as="sourcePoint" />
            <mxPoint x="710" y="249.62671594508993" as="targetPoint" />
          </mxGeometry>
        </mxCell>
        <mxCell id="hb6JNQIEblsWoCDhx1Lz-145" value="" style="endArrow=none;html=1;rounded=0;entryX=1;entryY=0.5;entryDx=0;entryDy=0;" edge="1" parent="1">
          <mxGeometry width="50" height="50" relative="1" as="geometry">
            <mxPoint x="679.9987961985215" y="249.5" as="sourcePoint" />
            <mxPoint x="560" y="249.62671594508993" as="targetPoint" />
          </mxGeometry>
        </mxCell>
        <mxCell id="hb6JNQIEblsWoCDhx1Lz-144" value="" style="endArrow=none;html=1;rounded=0;entryX=1;entryY=0.5;entryDx=0;entryDy=0;" edge="1" parent="1">
          <mxGeometry width="50" height="50" relative="1" as="geometry">
            <mxPoint x="479.9987961985215" y="249.5" as="sourcePoint" />
            <mxPoint x="360" y="249.62671594508993" as="targetPoint" />
          </mxGeometry>
        </mxCell>
        <mxCell id="hb6JNQIEblsWoCDhx1Lz-143" value="" style="endArrow=none;html=1;rounded=0;entryX=1;entryY=0.5;entryDx=0;entryDy=0;" edge="1" parent="1" target="hb6JNQIEblsWoCDhx1Lz-110">
          <mxGeometry width="50" height="50" relative="1" as="geometry">
            <mxPoint x="299.9987961985215" y="249.87328405491007" as="sourcePoint" />
            <mxPoint x="189.88" y="249.5" as="targetPoint" />
          </mxGeometry>
        </mxCell>
        <mxCell id="hb6JNQIEblsWoCDhx1Lz-142" value="" style="endArrow=none;html=1;rounded=0;exitX=0.5;exitY=0;exitDx=0;exitDy=0;" edge="1" parent="1">
          <mxGeometry width="50" height="50" relative="1" as="geometry">
            <mxPoint x="263" y="410" as="sourcePoint" />
            <mxPoint x="320" y="280" as="targetPoint" />
          </mxGeometry>
        </mxCell>
        <mxCell id="hb6JNQIEblsWoCDhx1Lz-140" value="" style="endArrow=none;html=1;rounded=0;" edge="1" parent="1">
          <mxGeometry width="50" height="50" relative="1" as="geometry">
            <mxPoint x="328" y="230" as="sourcePoint" />
            <mxPoint x="327.53" y="158.96" as="targetPoint" />
          </mxGeometry>
        </mxCell>
        <mxCell id="hb6JNQIEblsWoCDhx1Lz-134" value="" style="endArrow=none;html=1;rounded=0;" edge="1" parent="1">
          <mxGeometry width="50" height="50" relative="1" as="geometry">
            <mxPoint x="340" y="100" as="sourcePoint" />
            <mxPoint x="340" y="-10" as="targetPoint" />
          </mxGeometry>
        </mxCell>
        <mxCell id="hb6JNQIEblsWoCDhx1Lz-133" value="" style="endArrow=none;html=1;rounded=0;" edge="1" parent="1">
          <mxGeometry width="50" height="50" relative="1" as="geometry">
            <mxPoint x="310" y="100" as="sourcePoint" />
            <mxPoint x="310" y="-10" as="targetPoint" />
          </mxGeometry>
        </mxCell>
        <mxCell id="hb6JNQIEblsWoCDhx1Lz-2" value="&lt;b&gt;hospitalizacion&lt;/b&gt;&lt;span style=&quot;color: rgba(0, 0, 0, 0); font-family: monospace; font-size: 0px; text-align: start; text-wrap-mode: nowrap;&quot;&gt;%3CmxGraphModel%3E%3Croot%3E%3CmxCell%20id%3D%220%22%2F%3E%3CmxCell%20id%3D%221%22%20parent%3D%220%22%2F%3E%3CmxCell%20id%3D%222%22%20value%3D%22%26lt%3Bb%26gt%3Bpaciente%26lt%3B%2Fb%26gt%3B%22%20style%3D%22rounded%3D1%3BwhiteSpace%3Dwrap%3Bhtml%3D1%3Bshadow%3D1%3B%22%20vertex%3D%221%22%20parent%3D%221%22%3E%3CmxGeometry%20x%3D%2250%22%20y%3D%22170%22%20width%3D%22120%22%20height%3D%2260%22%20as%3D%22geometry%22%2F%3E%3C%2FmxCell%3E%3C%2Froot%3E%3C%2FmxGraphModel%3E&lt;/span&gt;" style="rounded=1;whiteSpace=wrap;html=1;shadow=1;" vertex="1" parent="1">
          <mxGeometry x="260" y="100" width="130" height="60" as="geometry" />
        </mxCell>
        <mxCell id="hb6JNQIEblsWoCDhx1Lz-5" value="&lt;b&gt;genera&lt;/b&gt;" style="rhombus;whiteSpace=wrap;html=1;rounded=1;shadow=1;" vertex="1" parent="1">
          <mxGeometry x="670" y="210" width="80" height="80" as="geometry" />
        </mxCell>
        <mxCell id="hb6JNQIEblsWoCDhx1Lz-7" value="&lt;b&gt;re&lt;/b&gt;&lt;span style=&quot;color: rgba(0, 0, 0, 0); font-family: monospace; font-size: 0px; text-align: start; text-wrap-mode: nowrap;&quot;&gt;%3CmxGraphModel%3E%3Croot%3E%3CmxCell%20id%3D%220%22%2F%3E%3CmxCell%20id%3D%221%22%20parent%3D%220%22%2F%3E%3CmxCell%20id%3D%222%22%20value%3D%22%26lt%3Bb%26gt%3Bhospitalizacion%26lt%3B%2Fb%26gt%3B%26lt%3Bspan%20style%3D%26quot%3Bcolor%3A%20rgba(0%2C%200%2C%200%2C%200)%3B%20font-family%3A%20monospace%3B%20font-size%3A%200px%3B%20text-align%3A%20start%3B%20text-wrap-mode%3A%20nowrap%3B%26quot%3B%26gt%3B%253CmxGraphModel%253E%253Croot%253E%253CmxCell%2520id%253D%25220%2522%252F%253E%253CmxCell%2520id%253D%25221%2522%2520parent%253D%25220%2522%252F%253E%253CmxCell%2520id%253D%25222%2522%2520value%253D%2522%2526lt%253Bb%2526gt%253Bpaciente%2526lt%253B%252Fb%2526gt%253B%2522%2520style%253D%2522rounded%253D1%253BwhiteSpace%253Dwrap%253Bhtml%253D1%253Bshadow%253D1%253B%2522%2520vertex%253D%25221%2522%2520parent%253D%25221%2522%253E%253CmxGeometry%2520x%253D%252250%2522%2520y%253D%2522170%2522%2520width%253D%2522120%2522%2520height%253D%252260%2522%2520as%253D%2522geometry%2522%252F%253E%253C%252FmxCell%253E%253C%252Froot%253E%253C%252FmxGraphModel%253E%26lt%3B%2Fspan%26gt%3B%22%20style%3D%22rounded%3D1%3BwhiteSpace%3Dwrap%3Bhtml%3D1%3Bshadow%3D1%3B%22%20vertex%3D%221%22%20parent%3D%221%22%3E%3CmxGeometry%20x%3D%22220%22%20y%3D%22170%22%20width%3D%22120%22%20height%3D%2260%22%20as%3D%22geometry%22%2F%3E%3C%2FmxCell%3E%3C%2Froot%3E%3C%2FmxGraphModel%3E&lt;/span&gt;&lt;b&gt;ceta&lt;/b&gt;" style="rounded=1;whiteSpace=wrap;html=1;shadow=1;" vertex="1" parent="1">
          <mxGeometry x="810" y="220" width="121" height="60" as="geometry" />
        </mxCell>
        <mxCell id="hb6JNQIEblsWoCDhx1Lz-8" value="&lt;font style=&quot;font-size: 13px;&quot;&gt;&lt;b style=&quot;&quot;&gt;atencion&lt;/b&gt;&lt;/font&gt;" style="rhombus;whiteSpace=wrap;html=1;rounded=1;shadow=1;" vertex="1" parent="1">
          <mxGeometry x="290" y="210" width="75" height="80" as="geometry" />
        </mxCell>
        <mxCell id="hb6JNQIEblsWoCDhx1Lz-11" value="&lt;b&gt;contiene&lt;/b&gt;" style="rhombus;whiteSpace=wrap;html=1;rounded=1;shadow=1;" vertex="1" parent="1">
          <mxGeometry x="980" y="210" width="80" height="80" as="geometry" />
        </mxCell>
        <mxCell id="hb6JNQIEblsWoCDhx1Lz-13" value="&lt;b&gt;medicamento&lt;/b&gt;" style="rounded=1;whiteSpace=wrap;html=1;shadow=1;" vertex="1" parent="1">
          <mxGeometry x="1110" y="220" width="120" height="60" as="geometry" />
        </mxCell>
        <mxCell id="hb6JNQIEblsWoCDhx1Lz-54" value="&lt;b&gt;medicos&lt;/b&gt;" style="rounded=1;whiteSpace=wrap;html=1;shadow=1;" vertex="1" parent="1">
          <mxGeometry x="480" y="220" width="120" height="60" as="geometry" />
        </mxCell>
        <mxCell id="hb6JNQIEblsWoCDhx1Lz-55" value="" style="endArrow=none;html=1;rounded=0;" edge="1" parent="1">
          <mxGeometry width="50" height="50" relative="1" as="geometry">
            <mxPoint x="500" y="340" as="sourcePoint" />
            <mxPoint x="500" y="280" as="targetPoint" />
          </mxGeometry>
        </mxCell>
        <mxCell id="hb6JNQIEblsWoCDhx1Lz-56" value="codigo" style="ellipse;whiteSpace=wrap;html=1;" vertex="1" parent="1">
          <mxGeometry x="470" y="320" width="60" height="40" as="geometry" />
        </mxCell>
        <mxCell id="hb6JNQIEblsWoCDhx1Lz-57" value="" style="endArrow=none;html=1;rounded=0;" edge="1" parent="1" source="hb6JNQIEblsWoCDhx1Lz-67">
          <mxGeometry width="50" height="50" relative="1" as="geometry">
            <mxPoint x="580" y="350" as="sourcePoint" />
            <mxPoint x="580" y="280" as="targetPoint" />
          </mxGeometry>
        </mxCell>
        <mxCell id="hb6JNQIEblsWoCDhx1Lz-58" value="" style="endArrow=none;html=1;rounded=0;" edge="1" parent="1" target="hb6JNQIEblsWoCDhx1Lz-67">
          <mxGeometry width="50" height="50" relative="1" as="geometry">
            <mxPoint x="570" y="340" as="sourcePoint" />
            <mxPoint x="570" y="280" as="targetPoint" />
          </mxGeometry>
        </mxCell>
        <mxCell id="hb6JNQIEblsWoCDhx1Lz-59" value="" style="endArrow=none;html=1;rounded=0;" edge="1" parent="1" source="hb6JNQIEblsWoCDhx1Lz-62">
          <mxGeometry width="50" height="50" relative="1" as="geometry">
            <mxPoint x="499.5" y="220" as="sourcePoint" />
            <mxPoint x="499.5" y="160" as="targetPoint" />
          </mxGeometry>
        </mxCell>
        <mxCell id="hb6JNQIEblsWoCDhx1Lz-60" value="" style="endArrow=none;html=1;rounded=0;" edge="1" parent="1" source="hb6JNQIEblsWoCDhx1Lz-64">
          <mxGeometry width="50" height="50" relative="1" as="geometry">
            <mxPoint x="569.5" y="220" as="sourcePoint" />
            <mxPoint x="569.5" y="160" as="targetPoint" />
          </mxGeometry>
        </mxCell>
        <mxCell id="hb6JNQIEblsWoCDhx1Lz-61" value="" style="endArrow=none;html=1;rounded=0;" edge="1" parent="1" target="hb6JNQIEblsWoCDhx1Lz-62">
          <mxGeometry width="50" height="50" relative="1" as="geometry">
            <mxPoint x="499.5" y="220" as="sourcePoint" />
            <mxPoint x="499.5" y="160" as="targetPoint" />
          </mxGeometry>
        </mxCell>
        <mxCell id="hb6JNQIEblsWoCDhx1Lz-62" value="apellido" style="ellipse;whiteSpace=wrap;html=1;" vertex="1" parent="1">
          <mxGeometry x="470" y="140" width="60" height="40" as="geometry" />
        </mxCell>
        <mxCell id="hb6JNQIEblsWoCDhx1Lz-63" value="" style="endArrow=none;html=1;rounded=0;" edge="1" parent="1">
          <mxGeometry width="50" height="50" relative="1" as="geometry">
            <mxPoint x="579.5" y="220" as="sourcePoint" />
            <mxPoint x="580" y="180" as="targetPoint" />
          </mxGeometry>
        </mxCell>
        <mxCell id="hb6JNQIEblsWoCDhx1Lz-64" value="&lt;font style=&quot;font-size: 10px;&quot;&gt;especialidad&lt;/font&gt;" style="ellipse;whiteSpace=wrap;html=1;" vertex="1" parent="1">
          <mxGeometry x="550" y="140" width="60" height="40" as="geometry" />
        </mxCell>
        <mxCell id="hb6JNQIEblsWoCDhx1Lz-65" value="" style="endArrow=none;html=1;rounded=0;" edge="1" parent="1">
          <mxGeometry width="50" height="50" relative="1" as="geometry">
            <mxPoint x="540" y="390" as="sourcePoint" />
            <mxPoint x="540" y="280" as="targetPoint" />
          </mxGeometry>
        </mxCell>
        <mxCell id="hb6JNQIEblsWoCDhx1Lz-66" value="" style="endArrow=none;html=1;rounded=0;" edge="1" parent="1" target="hb6JNQIEblsWoCDhx1Lz-67">
          <mxGeometry width="50" height="50" relative="1" as="geometry">
            <mxPoint x="580" y="350" as="sourcePoint" />
            <mxPoint x="580" y="280" as="targetPoint" />
          </mxGeometry>
        </mxCell>
        <mxCell id="hb6JNQIEblsWoCDhx1Lz-67" value="nombre" style="ellipse;whiteSpace=wrap;html=1;" vertex="1" parent="1">
          <mxGeometry x="550" y="320" width="60" height="40" as="geometry" />
        </mxCell>
        <mxCell id="hb6JNQIEblsWoCDhx1Lz-68" value="correo" style="ellipse;whiteSpace=wrap;html=1;" vertex="1" parent="1">
          <mxGeometry x="510" y="370" width="60" height="40" as="geometry" />
        </mxCell>
        <mxCell id="hb6JNQIEblsWoCDhx1Lz-69" value="" style="endArrow=none;html=1;rounded=0;" edge="1" parent="1">
          <mxGeometry width="50" height="50" relative="1" as="geometry">
            <mxPoint x="539.5" y="220" as="sourcePoint" />
            <mxPoint x="539.5" y="110" as="targetPoint" />
          </mxGeometry>
        </mxCell>
        <mxCell id="hb6JNQIEblsWoCDhx1Lz-70" value="&lt;font style=&quot;font-size: 9px;&quot;&gt;tarjeta_profesional&lt;/font&gt;" style="ellipse;whiteSpace=wrap;html=1;" vertex="1" parent="1">
          <mxGeometry x="500" y="80" width="80" height="40" as="geometry" />
        </mxCell>
        <mxCell id="hb6JNQIEblsWoCDhx1Lz-110" value="&lt;b&gt;pacientes&lt;/b&gt;" style="rounded=1;whiteSpace=wrap;html=1;shadow=1;" vertex="1" parent="1">
          <mxGeometry x="60" y="220" width="120" height="60" as="geometry" />
        </mxCell>
        <mxCell id="hb6JNQIEblsWoCDhx1Lz-111" value="" style="endArrow=none;html=1;rounded=0;" edge="1" parent="1">
          <mxGeometry width="50" height="50" relative="1" as="geometry">
            <mxPoint x="70" y="340" as="sourcePoint" />
            <mxPoint x="70" y="280" as="targetPoint" />
          </mxGeometry>
        </mxCell>
        <mxCell id="hb6JNQIEblsWoCDhx1Lz-112" value="" style="endArrow=none;html=1;rounded=0;" edge="1" parent="1">
          <mxGeometry width="50" height="50" relative="1" as="geometry">
            <mxPoint x="170" y="340" as="sourcePoint" />
            <mxPoint x="170" y="280" as="targetPoint" />
          </mxGeometry>
        </mxCell>
        <mxCell id="hb6JNQIEblsWoCDhx1Lz-113" value="documento" style="ellipse;whiteSpace=wrap;html=1;" vertex="1" parent="1">
          <mxGeometry x="40" y="320" width="60" height="40" as="geometry" />
        </mxCell>
        <mxCell id="hb6JNQIEblsWoCDhx1Lz-114" value="nombre" style="ellipse;whiteSpace=wrap;html=1;" vertex="1" parent="1">
          <mxGeometry x="140" y="320" width="60" height="40" as="geometry" />
        </mxCell>
        <mxCell id="hb6JNQIEblsWoCDhx1Lz-115" value="" style="endArrow=none;html=1;rounded=0;" edge="1" parent="1">
          <mxGeometry width="50" height="50" relative="1" as="geometry">
            <mxPoint x="110" y="390" as="sourcePoint" />
            <mxPoint x="110" y="280" as="targetPoint" />
          </mxGeometry>
        </mxCell>
        <mxCell id="hb6JNQIEblsWoCDhx1Lz-116" value="" style="endArrow=none;html=1;rounded=0;" edge="1" parent="1">
          <mxGeometry width="50" height="50" relative="1" as="geometry">
            <mxPoint x="130" y="390" as="sourcePoint" />
            <mxPoint x="130" y="280" as="targetPoint" />
          </mxGeometry>
        </mxCell>
        <mxCell id="hb6JNQIEblsWoCDhx1Lz-117" value="apellido" style="ellipse;whiteSpace=wrap;html=1;" vertex="1" parent="1">
          <mxGeometry x="60" y="370" width="60" height="40" as="geometry" />
        </mxCell>
        <mxCell id="hb6JNQIEblsWoCDhx1Lz-118" value="direccion" style="ellipse;whiteSpace=wrap;html=1;" vertex="1" parent="1">
          <mxGeometry x="123" y="370" width="60" height="40" as="geometry" />
        </mxCell>
        <mxCell id="hb6JNQIEblsWoCDhx1Lz-119" value="" style="endArrow=none;html=1;rounded=0;" edge="1" parent="1">
          <mxGeometry width="50" height="50" relative="1" as="geometry">
            <mxPoint x="69.5" y="220" as="sourcePoint" />
            <mxPoint x="69.5" y="160" as="targetPoint" />
          </mxGeometry>
        </mxCell>
        <mxCell id="hb6JNQIEblsWoCDhx1Lz-120" value="" style="endArrow=none;html=1;rounded=0;" edge="1" parent="1">
          <mxGeometry width="50" height="50" relative="1" as="geometry">
            <mxPoint x="169.5" y="220" as="sourcePoint" />
            <mxPoint x="169.5" y="160" as="targetPoint" />
          </mxGeometry>
        </mxCell>
        <mxCell id="hb6JNQIEblsWoCDhx1Lz-121" value="telefono" style="ellipse;whiteSpace=wrap;html=1;" vertex="1" parent="1">
          <mxGeometry x="40" y="130" width="60" height="40" as="geometry" />
        </mxCell>
        <mxCell id="hb6JNQIEblsWoCDhx1Lz-122" value="&lt;font style=&quot;font-size: 9px;&quot;&gt;fecha_nacimiento&lt;/font&gt;" style="ellipse;whiteSpace=wrap;html=1;" vertex="1" parent="1">
          <mxGeometry x="123" y="130" width="80" height="40" as="geometry" />
        </mxCell>
        <mxCell id="hb6JNQIEblsWoCDhx1Lz-123" value="" style="endArrow=none;html=1;rounded=0;" edge="1" parent="1">
          <mxGeometry width="50" height="50" relative="1" as="geometry">
            <mxPoint x="110" y="220" as="sourcePoint" />
            <mxPoint x="110" y="110" as="targetPoint" />
          </mxGeometry>
        </mxCell>
        <mxCell id="hb6JNQIEblsWoCDhx1Lz-124" value="eps" style="ellipse;whiteSpace=wrap;html=1;" vertex="1" parent="1">
          <mxGeometry x="80" y="80" width="60" height="40" as="geometry" />
        </mxCell>
        <mxCell id="hb6JNQIEblsWoCDhx1Lz-125" value="" style="endArrow=none;html=1;rounded=0;" edge="1" parent="1">
          <mxGeometry width="50" height="50" relative="1" as="geometry">
            <mxPoint x="270" y="100" as="sourcePoint" />
            <mxPoint x="270.5" y="60" as="targetPoint" />
          </mxGeometry>
        </mxCell>
        <mxCell id="hb6JNQIEblsWoCDhx1Lz-126" value="numero" style="ellipse;whiteSpace=wrap;html=1;" vertex="1" parent="1">
          <mxGeometry x="240" y="30" width="60" height="40" as="geometry" />
        </mxCell>
        <mxCell id="hb6JNQIEblsWoCDhx1Lz-127" value="" style="endArrow=none;html=1;rounded=0;" edge="1" parent="1">
          <mxGeometry width="50" height="50" relative="1" as="geometry">
            <mxPoint x="379.5" y="100" as="sourcePoint" />
            <mxPoint x="380" y="60" as="targetPoint" />
          </mxGeometry>
        </mxCell>
        <mxCell id="hb6JNQIEblsWoCDhx1Lz-128" value="paciente" style="ellipse;whiteSpace=wrap;html=1;" vertex="1" parent="1">
          <mxGeometry x="350" y="30" width="60" height="40" as="geometry" />
        </mxCell>
        <mxCell id="hb6JNQIEblsWoCDhx1Lz-131" value="&lt;font style=&quot;font-size: 9px;&quot;&gt;fecha_ingreso&lt;/font&gt;" style="ellipse;whiteSpace=wrap;html=1;" vertex="1" parent="1">
          <mxGeometry x="264" y="-30" width="60" height="40" as="geometry" />
        </mxCell>
        <mxCell id="hb6JNQIEblsWoCDhx1Lz-132" value="&lt;font style=&quot;font-size: 10px;&quot;&gt;fecha_salida&lt;/font&gt;" style="ellipse;whiteSpace=wrap;html=1;" vertex="1" parent="1">
          <mxGeometry x="326" y="-30" width="60" height="40" as="geometry" />
        </mxCell>
        <mxCell id="hb6JNQIEblsWoCDhx1Lz-135" value="" style="endArrow=none;html=1;rounded=0;" edge="1" parent="1" source="hb6JNQIEblsWoCDhx1Lz-136">
          <mxGeometry width="50" height="50" relative="1" as="geometry">
            <mxPoint x="390" y="110" as="sourcePoint" />
            <mxPoint x="470" y="10" as="targetPoint" />
          </mxGeometry>
        </mxCell>
        <mxCell id="hb6JNQIEblsWoCDhx1Lz-137" value="" style="endArrow=none;html=1;rounded=0;" edge="1" parent="1" target="hb6JNQIEblsWoCDhx1Lz-136">
          <mxGeometry width="50" height="50" relative="1" as="geometry">
            <mxPoint x="390" y="110" as="sourcePoint" />
            <mxPoint x="470" y="10" as="targetPoint" />
          </mxGeometry>
        </mxCell>
        <mxCell id="hb6JNQIEblsWoCDhx1Lz-136" value="&lt;font style=&quot;font-size: 11px;&quot;&gt;diagnostico&lt;/font&gt;" style="ellipse;whiteSpace=wrap;html=1;" vertex="1" parent="1">
          <mxGeometry x="410" y="-20" width="90" height="40" as="geometry" />
        </mxCell>
        <mxCell id="hb6JNQIEblsWoCDhx1Lz-138" value="" style="endArrow=none;html=1;rounded=0;exitX=-0.005;exitY=0.147;exitDx=0;exitDy=0;exitPerimeter=0;entryX=1;entryY=1;entryDx=0;entryDy=0;" edge="1" parent="1" source="hb6JNQIEblsWoCDhx1Lz-2" target="hb6JNQIEblsWoCDhx1Lz-139">
          <mxGeometry width="50" height="50" relative="1" as="geometry">
            <mxPoint x="193" y="96" as="sourcePoint" />
            <mxPoint x="160" y="10" as="targetPoint" />
          </mxGeometry>
        </mxCell>
        <mxCell id="hb6JNQIEblsWoCDhx1Lz-139" value="&lt;font style=&quot;font-size: 9px;&quot;&gt;medico_responsable&lt;/font&gt;" style="ellipse;whiteSpace=wrap;html=1;" vertex="1" parent="1">
          <mxGeometry x="120" y="-20" width="100" height="40" as="geometry" />
        </mxCell>
        <mxCell id="hb6JNQIEblsWoCDhx1Lz-147" value="numero" style="ellipse;whiteSpace=wrap;html=1;" vertex="1" parent="1">
          <mxGeometry x="770" y="140" width="60" height="40" as="geometry" />
        </mxCell>
        <mxCell id="hb6JNQIEblsWoCDhx1Lz-148" value="nombre" style="ellipse;whiteSpace=wrap;html=1;" vertex="1" parent="1">
          <mxGeometry x="630" y="350" width="60" height="40" as="geometry" />
        </mxCell>
        <mxCell id="hb6JNQIEblsWoCDhx1Lz-149" value="&lt;font style=&quot;font-size: 10px;&quot;&gt;medicamentos_prescritos&lt;/font&gt;" style="ellipse;whiteSpace=wrap;html=1;" vertex="1" parent="1">
          <mxGeometry x="750" y="320" width="120" height="40" as="geometry" />
        </mxCell>
        <mxCell id="hb6JNQIEblsWoCDhx1Lz-150" value="fecha" style="ellipse;whiteSpace=wrap;html=1;" vertex="1" parent="1">
          <mxGeometry x="910" y="140" width="60" height="40" as="geometry" />
        </mxCell>
        <mxCell id="hb6JNQIEblsWoCDhx1Lz-151" value="paciente" style="ellipse;whiteSpace=wrap;html=1;" vertex="1" parent="1">
          <mxGeometry x="840" y="140" width="60" height="40" as="geometry" />
        </mxCell>
        <mxCell id="hb6JNQIEblsWoCDhx1Lz-152" value="medico" style="ellipse;whiteSpace=wrap;html=1;" vertex="1" parent="1">
          <mxGeometry x="880" y="320" width="120" height="40" as="geometry" />
        </mxCell>
        <mxCell id="hb6JNQIEblsWoCDhx1Lz-153" value="" style="endArrow=none;html=1;rounded=0;" edge="1" parent="1">
          <mxGeometry width="50" height="50" relative="1" as="geometry">
            <mxPoint x="869.5" y="220" as="sourcePoint" />
            <mxPoint x="869.5" y="180" as="targetPoint" />
          </mxGeometry>
        </mxCell>
        <mxCell id="hb6JNQIEblsWoCDhx1Lz-156" value="" style="endArrow=none;html=1;rounded=0;" edge="1" parent="1">
          <mxGeometry width="50" height="50" relative="1" as="geometry">
            <mxPoint x="820" y="320" as="sourcePoint" />
            <mxPoint x="820" y="280" as="targetPoint" />
          </mxGeometry>
        </mxCell>
        <mxCell id="hb6JNQIEblsWoCDhx1Lz-157" value="" style="endArrow=none;html=1;rounded=0;" edge="1" parent="1">
          <mxGeometry width="50" height="50" relative="1" as="geometry">
            <mxPoint x="920" y="320" as="sourcePoint" />
            <mxPoint x="920" y="280" as="targetPoint" />
          </mxGeometry>
        </mxCell>
        <mxCell id="hb6JNQIEblsWoCDhx1Lz-160" value="codigo" style="ellipse;whiteSpace=wrap;html=1;" vertex="1" parent="1">
          <mxGeometry x="1070" y="140" width="60" height="40" as="geometry" />
        </mxCell>
        <mxCell id="hb6JNQIEblsWoCDhx1Lz-161" value="nombre" style="ellipse;whiteSpace=wrap;html=1;" vertex="1" parent="1">
          <mxGeometry x="1140" y="140" width="60" height="40" as="geometry" />
        </mxCell>
        <mxCell id="hb6JNQIEblsWoCDhx1Lz-162" value="&lt;font style=&quot;font-size: 11px;&quot;&gt;descripcion&lt;/font&gt;" style="ellipse;whiteSpace=wrap;html=1;" vertex="1" parent="1">
          <mxGeometry x="1210" y="140" width="60" height="40" as="geometry" />
        </mxCell>
        <mxCell id="hb6JNQIEblsWoCDhx1Lz-163" value="" style="endArrow=none;html=1;rounded=0;" edge="1" parent="1">
          <mxGeometry width="50" height="50" relative="1" as="geometry">
            <mxPoint x="1168" y="220" as="sourcePoint" />
            <mxPoint x="1168" y="180" as="targetPoint" />
          </mxGeometry>
        </mxCell>
        <mxCell id="hb6JNQIEblsWoCDhx1Lz-167" value="&lt;font style=&quot;font-size: 11px;&quot;&gt;laboratorio&lt;/font&gt;" style="ellipse;whiteSpace=wrap;html=1;" vertex="1" parent="1">
          <mxGeometry x="1090" y="320" width="70" height="40" as="geometry" />
        </mxCell>
        <mxCell id="hb6JNQIEblsWoCDhx1Lz-168" value="&lt;font style=&quot;font-size: 10px;&quot;&gt;precio_unitario&lt;/font&gt;" style="ellipse;whiteSpace=wrap;html=1;" vertex="1" parent="1">
          <mxGeometry x="1180" y="320" width="70" height="40" as="geometry" />
        </mxCell>
        <mxCell id="hb6JNQIEblsWoCDhx1Lz-169" value="" style="endArrow=none;html=1;rounded=0;" edge="1" parent="1">
          <mxGeometry width="50" height="50" relative="1" as="geometry">
            <mxPoint x="1130" y="320" as="sourcePoint" />
            <mxPoint x="1130" y="280" as="targetPoint" />
          </mxGeometry>
        </mxCell>
        <mxCell id="hb6JNQIEblsWoCDhx1Lz-170" value="" style="endArrow=none;html=1;rounded=0;" edge="1" parent="1">
          <mxGeometry width="50" height="50" relative="1" as="geometry">
            <mxPoint x="1210" y="320" as="sourcePoint" />
            <mxPoint x="1210" y="280" as="targetPoint" />
          </mxGeometry>
        </mxCell>
        <mxCell id="hb6JNQIEblsWoCDhx1Lz-171" value="paciente" style="shape=table;startSize=30;container=1;collapsible=1;childLayout=tableLayout;fixedRows=1;rowLines=0;fontStyle=1;align=center;resizeLast=1;html=1;rounded=1;shadow=1;" vertex="1" parent="1">
          <mxGeometry x="50" y="650" width="180" height="240" as="geometry" />
        </mxCell>
        <mxCell id="hb6JNQIEblsWoCDhx1Lz-172" value="" style="shape=tableRow;horizontal=0;startSize=0;swimlaneHead=0;swimlaneBody=0;fillColor=none;collapsible=0;dropTarget=0;points=[[0,0.5],[1,0.5]];portConstraint=eastwest;top=0;left=0;right=0;bottom=1;" vertex="1" parent="hb6JNQIEblsWoCDhx1Lz-171">
          <mxGeometry y="30" width="180" height="30" as="geometry" />
        </mxCell>
        <mxCell id="hb6JNQIEblsWoCDhx1Lz-173" value="PK" style="shape=partialRectangle;connectable=0;fillColor=none;top=0;left=0;bottom=0;right=0;fontStyle=1;overflow=hidden;whiteSpace=wrap;html=1;" vertex="1" parent="hb6JNQIEblsWoCDhx1Lz-172">
          <mxGeometry width="30" height="30" as="geometry">
            <mxRectangle width="30" height="30" as="alternateBounds" />
          </mxGeometry>
        </mxCell>
        <mxCell id="hb6JNQIEblsWoCDhx1Lz-174" value="id_paciente" style="shape=partialRectangle;connectable=0;fillColor=none;top=0;left=0;bottom=0;right=0;align=left;spacingLeft=6;fontStyle=5;overflow=hidden;whiteSpace=wrap;html=1;" vertex="1" parent="hb6JNQIEblsWoCDhx1Lz-172">
          <mxGeometry x="30" width="150" height="30" as="geometry">
            <mxRectangle width="150" height="30" as="alternateBounds" />
          </mxGeometry>
        </mxCell>
        <mxCell id="hb6JNQIEblsWoCDhx1Lz-175" value="" style="shape=tableRow;horizontal=0;startSize=0;swimlaneHead=0;swimlaneBody=0;fillColor=none;collapsible=0;dropTarget=0;points=[[0,0.5],[1,0.5]];portConstraint=eastwest;top=0;left=0;right=0;bottom=0;" vertex="1" parent="hb6JNQIEblsWoCDhx1Lz-171">
          <mxGeometry y="60" width="180" height="30" as="geometry" />
        </mxCell>
        <mxCell id="hb6JNQIEblsWoCDhx1Lz-176" value="" style="shape=partialRectangle;connectable=0;fillColor=none;top=0;left=0;bottom=0;right=0;editable=1;overflow=hidden;whiteSpace=wrap;html=1;" vertex="1" parent="hb6JNQIEblsWoCDhx1Lz-175">
          <mxGeometry width="30" height="30" as="geometry">
            <mxRectangle width="30" height="30" as="alternateBounds" />
          </mxGeometry>
        </mxCell>
        <mxCell id="hb6JNQIEblsWoCDhx1Lz-177" value="nombre" style="shape=partialRectangle;connectable=0;fillColor=none;top=0;left=0;bottom=0;right=0;align=left;spacingLeft=6;overflow=hidden;whiteSpace=wrap;html=1;" vertex="1" parent="hb6JNQIEblsWoCDhx1Lz-175">
          <mxGeometry x="30" width="150" height="30" as="geometry">
            <mxRectangle width="150" height="30" as="alternateBounds" />
          </mxGeometry>
        </mxCell>
        <mxCell id="hb6JNQIEblsWoCDhx1Lz-178" value="" style="shape=tableRow;horizontal=0;startSize=0;swimlaneHead=0;swimlaneBody=0;fillColor=none;collapsible=0;dropTarget=0;points=[[0,0.5],[1,0.5]];portConstraint=eastwest;top=0;left=0;right=0;bottom=0;" vertex="1" parent="hb6JNQIEblsWoCDhx1Lz-171">
          <mxGeometry y="90" width="180" height="30" as="geometry" />
        </mxCell>
        <mxCell id="hb6JNQIEblsWoCDhx1Lz-179" value="" style="shape=partialRectangle;connectable=0;fillColor=none;top=0;left=0;bottom=0;right=0;editable=1;overflow=hidden;whiteSpace=wrap;html=1;" vertex="1" parent="hb6JNQIEblsWoCDhx1Lz-178">
          <mxGeometry width="30" height="30" as="geometry">
            <mxRectangle width="30" height="30" as="alternateBounds" />
          </mxGeometry>
        </mxCell>
        <mxCell id="hb6JNQIEblsWoCDhx1Lz-180" value="apellido" style="shape=partialRectangle;connectable=0;fillColor=none;top=0;left=0;bottom=0;right=0;align=left;spacingLeft=6;overflow=hidden;whiteSpace=wrap;html=1;" vertex="1" parent="hb6JNQIEblsWoCDhx1Lz-178">
          <mxGeometry x="30" width="150" height="30" as="geometry">
            <mxRectangle width="150" height="30" as="alternateBounds" />
          </mxGeometry>
        </mxCell>
        <mxCell id="hb6JNQIEblsWoCDhx1Lz-181" value="" style="shape=tableRow;horizontal=0;startSize=0;swimlaneHead=0;swimlaneBody=0;fillColor=none;collapsible=0;dropTarget=0;points=[[0,0.5],[1,0.5]];portConstraint=eastwest;top=0;left=0;right=0;bottom=0;" vertex="1" parent="hb6JNQIEblsWoCDhx1Lz-171">
          <mxGeometry y="120" width="180" height="30" as="geometry" />
        </mxCell>
        <mxCell id="hb6JNQIEblsWoCDhx1Lz-182" value="" style="shape=partialRectangle;connectable=0;fillColor=none;top=0;left=0;bottom=0;right=0;editable=1;overflow=hidden;whiteSpace=wrap;html=1;" vertex="1" parent="hb6JNQIEblsWoCDhx1Lz-181">
          <mxGeometry width="30" height="30" as="geometry">
            <mxRectangle width="30" height="30" as="alternateBounds" />
          </mxGeometry>
        </mxCell>
        <mxCell id="hb6JNQIEblsWoCDhx1Lz-183" value="direccion" style="shape=partialRectangle;connectable=0;fillColor=none;top=0;left=0;bottom=0;right=0;align=left;spacingLeft=6;overflow=hidden;whiteSpace=wrap;html=1;" vertex="1" parent="hb6JNQIEblsWoCDhx1Lz-181">
          <mxGeometry x="30" width="150" height="30" as="geometry">
            <mxRectangle width="150" height="30" as="alternateBounds" />
          </mxGeometry>
        </mxCell>
        <mxCell id="hb6JNQIEblsWoCDhx1Lz-184" value="" style="shape=tableRow;horizontal=0;startSize=0;swimlaneHead=0;swimlaneBody=0;fillColor=none;collapsible=0;dropTarget=0;points=[[0,0.5],[1,0.5]];portConstraint=eastwest;top=0;left=0;right=0;bottom=0;" vertex="1" parent="hb6JNQIEblsWoCDhx1Lz-171">
          <mxGeometry y="150" width="180" height="30" as="geometry" />
        </mxCell>
        <mxCell id="hb6JNQIEblsWoCDhx1Lz-185" value="" style="shape=partialRectangle;connectable=0;fillColor=none;top=0;left=0;bottom=0;right=0;editable=1;overflow=hidden;whiteSpace=wrap;html=1;" vertex="1" parent="hb6JNQIEblsWoCDhx1Lz-184">
          <mxGeometry width="30" height="30" as="geometry">
            <mxRectangle width="30" height="30" as="alternateBounds" />
          </mxGeometry>
        </mxCell>
        <mxCell id="hb6JNQIEblsWoCDhx1Lz-186" value="telefono" style="shape=partialRectangle;connectable=0;fillColor=none;top=0;left=0;bottom=0;right=0;align=left;spacingLeft=6;overflow=hidden;whiteSpace=wrap;html=1;" vertex="1" parent="hb6JNQIEblsWoCDhx1Lz-184">
          <mxGeometry x="30" width="150" height="30" as="geometry">
            <mxRectangle width="150" height="30" as="alternateBounds" />
          </mxGeometry>
        </mxCell>
        <mxCell id="hb6JNQIEblsWoCDhx1Lz-187" value="" style="shape=tableRow;horizontal=0;startSize=0;swimlaneHead=0;swimlaneBody=0;fillColor=none;collapsible=0;dropTarget=0;points=[[0,0.5],[1,0.5]];portConstraint=eastwest;top=0;left=0;right=0;bottom=0;" vertex="1" parent="hb6JNQIEblsWoCDhx1Lz-171">
          <mxGeometry y="180" width="180" height="30" as="geometry" />
        </mxCell>
        <mxCell id="hb6JNQIEblsWoCDhx1Lz-188" value="" style="shape=partialRectangle;connectable=0;fillColor=none;top=0;left=0;bottom=0;right=0;editable=1;overflow=hidden;whiteSpace=wrap;html=1;" vertex="1" parent="hb6JNQIEblsWoCDhx1Lz-187">
          <mxGeometry width="30" height="30" as="geometry">
            <mxRectangle width="30" height="30" as="alternateBounds" />
          </mxGeometry>
        </mxCell>
        <mxCell id="hb6JNQIEblsWoCDhx1Lz-189" value="fecha_nacimiento" style="shape=partialRectangle;connectable=0;fillColor=none;top=0;left=0;bottom=0;right=0;align=left;spacingLeft=6;overflow=hidden;whiteSpace=wrap;html=1;" vertex="1" parent="hb6JNQIEblsWoCDhx1Lz-187">
          <mxGeometry x="30" width="150" height="30" as="geometry">
            <mxRectangle width="150" height="30" as="alternateBounds" />
          </mxGeometry>
        </mxCell>
        <mxCell id="hb6JNQIEblsWoCDhx1Lz-190" value="" style="shape=tableRow;horizontal=0;startSize=0;swimlaneHead=0;swimlaneBody=0;fillColor=none;collapsible=0;dropTarget=0;points=[[0,0.5],[1,0.5]];portConstraint=eastwest;top=0;left=0;right=0;bottom=0;" vertex="1" parent="hb6JNQIEblsWoCDhx1Lz-171">
          <mxGeometry y="210" width="180" height="30" as="geometry" />
        </mxCell>
        <mxCell id="hb6JNQIEblsWoCDhx1Lz-191" value="" style="shape=partialRectangle;connectable=0;fillColor=none;top=0;left=0;bottom=0;right=0;editable=1;overflow=hidden;whiteSpace=wrap;html=1;" vertex="1" parent="hb6JNQIEblsWoCDhx1Lz-190">
          <mxGeometry width="30" height="30" as="geometry">
            <mxRectangle width="30" height="30" as="alternateBounds" />
          </mxGeometry>
        </mxCell>
        <mxCell id="hb6JNQIEblsWoCDhx1Lz-192" value="eps" style="shape=partialRectangle;connectable=0;fillColor=none;top=0;left=0;bottom=0;right=0;align=left;spacingLeft=6;overflow=hidden;whiteSpace=wrap;html=1;" vertex="1" parent="hb6JNQIEblsWoCDhx1Lz-190">
          <mxGeometry x="30" width="150" height="30" as="geometry">
            <mxRectangle width="150" height="30" as="alternateBounds" />
          </mxGeometry>
        </mxCell>
        <mxCell id="hb6JNQIEblsWoCDhx1Lz-193" value="hospitalizacion" style="shape=table;startSize=30;container=1;collapsible=1;childLayout=tableLayout;fixedRows=1;rowLines=0;fontStyle=1;align=center;resizeLast=1;html=1;rounded=1;shadow=1;" vertex="1" parent="1">
          <mxGeometry x="319" y="650" width="180" height="210" as="geometry" />
        </mxCell>
        <mxCell id="hb6JNQIEblsWoCDhx1Lz-194" value="" style="shape=tableRow;horizontal=0;startSize=0;swimlaneHead=0;swimlaneBody=0;fillColor=none;collapsible=0;dropTarget=0;points=[[0,0.5],[1,0.5]];portConstraint=eastwest;top=0;left=0;right=0;bottom=1;" vertex="1" parent="hb6JNQIEblsWoCDhx1Lz-193">
          <mxGeometry y="30" width="180" height="30" as="geometry" />
        </mxCell>
        <mxCell id="hb6JNQIEblsWoCDhx1Lz-195" value="PK" style="shape=partialRectangle;connectable=0;fillColor=none;top=0;left=0;bottom=0;right=0;fontStyle=1;overflow=hidden;whiteSpace=wrap;html=1;" vertex="1" parent="hb6JNQIEblsWoCDhx1Lz-194">
          <mxGeometry width="30" height="30" as="geometry">
            <mxRectangle width="30" height="30" as="alternateBounds" />
          </mxGeometry>
        </mxCell>
        <mxCell id="hb6JNQIEblsWoCDhx1Lz-196" value="id_hospitalizacion" style="shape=partialRectangle;connectable=0;fillColor=none;top=0;left=0;bottom=0;right=0;align=left;spacingLeft=6;fontStyle=5;overflow=hidden;whiteSpace=wrap;html=1;" vertex="1" parent="hb6JNQIEblsWoCDhx1Lz-194">
          <mxGeometry x="30" width="150" height="30" as="geometry">
            <mxRectangle width="150" height="30" as="alternateBounds" />
          </mxGeometry>
        </mxCell>
        <mxCell id="hb6JNQIEblsWoCDhx1Lz-197" value="" style="shape=tableRow;horizontal=0;startSize=0;swimlaneHead=0;swimlaneBody=0;fillColor=none;collapsible=0;dropTarget=0;points=[[0,0.5],[1,0.5]];portConstraint=eastwest;top=0;left=0;right=0;bottom=0;" vertex="1" parent="hb6JNQIEblsWoCDhx1Lz-193">
          <mxGeometry y="60" width="180" height="30" as="geometry" />
        </mxCell>
        <mxCell id="hb6JNQIEblsWoCDhx1Lz-198" value="&lt;b&gt;FK&lt;/b&gt;" style="shape=partialRectangle;connectable=0;fillColor=none;top=0;left=0;bottom=0;right=0;editable=1;overflow=hidden;whiteSpace=wrap;html=1;" vertex="1" parent="hb6JNQIEblsWoCDhx1Lz-197">
          <mxGeometry width="30" height="30" as="geometry">
            <mxRectangle width="30" height="30" as="alternateBounds" />
          </mxGeometry>
        </mxCell>
        <mxCell id="hb6JNQIEblsWoCDhx1Lz-199" value="id_paciente" style="shape=partialRectangle;connectable=0;fillColor=none;top=0;left=0;bottom=0;right=0;align=left;spacingLeft=6;overflow=hidden;whiteSpace=wrap;html=1;" vertex="1" parent="hb6JNQIEblsWoCDhx1Lz-197">
          <mxGeometry x="30" width="150" height="30" as="geometry">
            <mxRectangle width="150" height="30" as="alternateBounds" />
          </mxGeometry>
        </mxCell>
        <mxCell id="hb6JNQIEblsWoCDhx1Lz-200" value="" style="shape=tableRow;horizontal=0;startSize=0;swimlaneHead=0;swimlaneBody=0;fillColor=none;collapsible=0;dropTarget=0;points=[[0,0.5],[1,0.5]];portConstraint=eastwest;top=0;left=0;right=0;bottom=0;" vertex="1" parent="hb6JNQIEblsWoCDhx1Lz-193">
          <mxGeometry y="90" width="180" height="30" as="geometry" />
        </mxCell>
        <mxCell id="hb6JNQIEblsWoCDhx1Lz-201" value="&lt;b&gt;FK&lt;/b&gt;" style="shape=partialRectangle;connectable=0;fillColor=none;top=0;left=0;bottom=0;right=0;editable=1;overflow=hidden;whiteSpace=wrap;html=1;" vertex="1" parent="hb6JNQIEblsWoCDhx1Lz-200">
          <mxGeometry width="30" height="30" as="geometry">
            <mxRectangle width="30" height="30" as="alternateBounds" />
          </mxGeometry>
        </mxCell>
        <mxCell id="hb6JNQIEblsWoCDhx1Lz-202" value="id_medico" style="shape=partialRectangle;connectable=0;fillColor=none;top=0;left=0;bottom=0;right=0;align=left;spacingLeft=6;overflow=hidden;whiteSpace=wrap;html=1;" vertex="1" parent="hb6JNQIEblsWoCDhx1Lz-200">
          <mxGeometry x="30" width="150" height="30" as="geometry">
            <mxRectangle width="150" height="30" as="alternateBounds" />
          </mxGeometry>
        </mxCell>
        <mxCell id="hb6JNQIEblsWoCDhx1Lz-203" value="" style="shape=tableRow;horizontal=0;startSize=0;swimlaneHead=0;swimlaneBody=0;fillColor=none;collapsible=0;dropTarget=0;points=[[0,0.5],[1,0.5]];portConstraint=eastwest;top=0;left=0;right=0;bottom=0;" vertex="1" parent="hb6JNQIEblsWoCDhx1Lz-193">
          <mxGeometry y="120" width="180" height="30" as="geometry" />
        </mxCell>
        <mxCell id="hb6JNQIEblsWoCDhx1Lz-204" value="" style="shape=partialRectangle;connectable=0;fillColor=none;top=0;left=0;bottom=0;right=0;editable=1;overflow=hidden;whiteSpace=wrap;html=1;" vertex="1" parent="hb6JNQIEblsWoCDhx1Lz-203">
          <mxGeometry width="30" height="30" as="geometry">
            <mxRectangle width="30" height="30" as="alternateBounds" />
          </mxGeometry>
        </mxCell>
        <mxCell id="hb6JNQIEblsWoCDhx1Lz-205" value="fecha_ingreso" style="shape=partialRectangle;connectable=0;fillColor=none;top=0;left=0;bottom=0;right=0;align=left;spacingLeft=6;overflow=hidden;whiteSpace=wrap;html=1;" vertex="1" parent="hb6JNQIEblsWoCDhx1Lz-203">
          <mxGeometry x="30" width="150" height="30" as="geometry">
            <mxRectangle width="150" height="30" as="alternateBounds" />
          </mxGeometry>
        </mxCell>
        <mxCell id="hb6JNQIEblsWoCDhx1Lz-206" value="" style="shape=tableRow;horizontal=0;startSize=0;swimlaneHead=0;swimlaneBody=0;fillColor=none;collapsible=0;dropTarget=0;points=[[0,0.5],[1,0.5]];portConstraint=eastwest;top=0;left=0;right=0;bottom=0;" vertex="1" parent="hb6JNQIEblsWoCDhx1Lz-193">
          <mxGeometry y="150" width="180" height="30" as="geometry" />
        </mxCell>
        <mxCell id="hb6JNQIEblsWoCDhx1Lz-207" value="" style="shape=partialRectangle;connectable=0;fillColor=none;top=0;left=0;bottom=0;right=0;editable=1;overflow=hidden;whiteSpace=wrap;html=1;" vertex="1" parent="hb6JNQIEblsWoCDhx1Lz-206">
          <mxGeometry width="30" height="30" as="geometry">
            <mxRectangle width="30" height="30" as="alternateBounds" />
          </mxGeometry>
        </mxCell>
        <mxCell id="hb6JNQIEblsWoCDhx1Lz-208" value="fecha_salida" style="shape=partialRectangle;connectable=0;fillColor=none;top=0;left=0;bottom=0;right=0;align=left;spacingLeft=6;overflow=hidden;whiteSpace=wrap;html=1;" vertex="1" parent="hb6JNQIEblsWoCDhx1Lz-206">
          <mxGeometry x="30" width="150" height="30" as="geometry">
            <mxRectangle width="150" height="30" as="alternateBounds" />
          </mxGeometry>
        </mxCell>
        <mxCell id="hb6JNQIEblsWoCDhx1Lz-209" value="" style="shape=tableRow;horizontal=0;startSize=0;swimlaneHead=0;swimlaneBody=0;fillColor=none;collapsible=0;dropTarget=0;points=[[0,0.5],[1,0.5]];portConstraint=eastwest;top=0;left=0;right=0;bottom=0;" vertex="1" parent="hb6JNQIEblsWoCDhx1Lz-193">
          <mxGeometry y="180" width="180" height="30" as="geometry" />
        </mxCell>
        <mxCell id="hb6JNQIEblsWoCDhx1Lz-210" value="" style="shape=partialRectangle;connectable=0;fillColor=none;top=0;left=0;bottom=0;right=0;editable=1;overflow=hidden;whiteSpace=wrap;html=1;" vertex="1" parent="hb6JNQIEblsWoCDhx1Lz-209">
          <mxGeometry width="30" height="30" as="geometry">
            <mxRectangle width="30" height="30" as="alternateBounds" />
          </mxGeometry>
        </mxCell>
        <mxCell id="hb6JNQIEblsWoCDhx1Lz-211" value="diagnostico" style="shape=partialRectangle;connectable=0;fillColor=none;top=0;left=0;bottom=0;right=0;align=left;spacingLeft=6;overflow=hidden;whiteSpace=wrap;html=1;" vertex="1" parent="hb6JNQIEblsWoCDhx1Lz-209">
          <mxGeometry x="30" width="150" height="30" as="geometry">
            <mxRectangle width="150" height="30" as="alternateBounds" />
          </mxGeometry>
        </mxCell>
        <mxCell id="hb6JNQIEblsWoCDhx1Lz-216" value="" style="edgeStyle=entityRelationEdgeStyle;fontSize=12;html=1;endArrow=ERzeroToMany;endFill=1;rounded=0;entryX=-0.004;entryY=-0.013;entryDx=0;entryDy=0;entryPerimeter=0;" edge="1" parent="1">
          <mxGeometry width="100" height="100" relative="1" as="geometry">
            <mxPoint x="230" y="710.39" as="sourcePoint" />
            <mxPoint x="319.28" y="710.0000000000001" as="targetPoint" />
          </mxGeometry>
        </mxCell>
        <mxCell id="hb6JNQIEblsWoCDhx1Lz-217" value="1:N" style="text;html=1;align=center;verticalAlign=middle;resizable=0;points=[];autosize=1;strokeColor=none;fillColor=none;" vertex="1" parent="1">
          <mxGeometry x="250" y="710" width="40" height="30" as="geometry" />
        </mxCell>
        <mxCell id="hb6JNQIEblsWoCDhx1Lz-218" value="medico" style="shape=table;startSize=30;container=1;collapsible=1;childLayout=tableLayout;fixedRows=1;rowLines=0;fontStyle=1;align=center;resizeLast=1;html=1;rounded=1;shadow=1;" vertex="1" parent="1">
          <mxGeometry x="860" y="650" width="180" height="210" as="geometry" />
        </mxCell>
        <mxCell id="hb6JNQIEblsWoCDhx1Lz-219" value="" style="shape=tableRow;horizontal=0;startSize=0;swimlaneHead=0;swimlaneBody=0;fillColor=none;collapsible=0;dropTarget=0;points=[[0,0.5],[1,0.5]];portConstraint=eastwest;top=0;left=0;right=0;bottom=1;" vertex="1" parent="hb6JNQIEblsWoCDhx1Lz-218">
          <mxGeometry y="30" width="180" height="30" as="geometry" />
        </mxCell>
        <mxCell id="hb6JNQIEblsWoCDhx1Lz-220" value="PK" style="shape=partialRectangle;connectable=0;fillColor=none;top=0;left=0;bottom=0;right=0;fontStyle=1;overflow=hidden;whiteSpace=wrap;html=1;" vertex="1" parent="hb6JNQIEblsWoCDhx1Lz-219">
          <mxGeometry width="30" height="30" as="geometry">
            <mxRectangle width="30" height="30" as="alternateBounds" />
          </mxGeometry>
        </mxCell>
        <mxCell id="hb6JNQIEblsWoCDhx1Lz-221" value="id_medico" style="shape=partialRectangle;connectable=0;fillColor=none;top=0;left=0;bottom=0;right=0;align=left;spacingLeft=6;fontStyle=5;overflow=hidden;whiteSpace=wrap;html=1;" vertex="1" parent="hb6JNQIEblsWoCDhx1Lz-219">
          <mxGeometry x="30" width="150" height="30" as="geometry">
            <mxRectangle width="150" height="30" as="alternateBounds" />
          </mxGeometry>
        </mxCell>
        <mxCell id="hb6JNQIEblsWoCDhx1Lz-222" value="" style="shape=tableRow;horizontal=0;startSize=0;swimlaneHead=0;swimlaneBody=0;fillColor=none;collapsible=0;dropTarget=0;points=[[0,0.5],[1,0.5]];portConstraint=eastwest;top=0;left=0;right=0;bottom=0;" vertex="1" parent="hb6JNQIEblsWoCDhx1Lz-218">
          <mxGeometry y="60" width="180" height="30" as="geometry" />
        </mxCell>
        <mxCell id="hb6JNQIEblsWoCDhx1Lz-223" value="" style="shape=partialRectangle;connectable=0;fillColor=none;top=0;left=0;bottom=0;right=0;editable=1;overflow=hidden;whiteSpace=wrap;html=1;" vertex="1" parent="hb6JNQIEblsWoCDhx1Lz-222">
          <mxGeometry width="30" height="30" as="geometry">
            <mxRectangle width="30" height="30" as="alternateBounds" />
          </mxGeometry>
        </mxCell>
        <mxCell id="hb6JNQIEblsWoCDhx1Lz-224" value="nombre" style="shape=partialRectangle;connectable=0;fillColor=none;top=0;left=0;bottom=0;right=0;align=left;spacingLeft=6;overflow=hidden;whiteSpace=wrap;html=1;" vertex="1" parent="hb6JNQIEblsWoCDhx1Lz-222">
          <mxGeometry x="30" width="150" height="30" as="geometry">
            <mxRectangle width="150" height="30" as="alternateBounds" />
          </mxGeometry>
        </mxCell>
        <mxCell id="hb6JNQIEblsWoCDhx1Lz-225" value="" style="shape=tableRow;horizontal=0;startSize=0;swimlaneHead=0;swimlaneBody=0;fillColor=none;collapsible=0;dropTarget=0;points=[[0,0.5],[1,0.5]];portConstraint=eastwest;top=0;left=0;right=0;bottom=0;" vertex="1" parent="hb6JNQIEblsWoCDhx1Lz-218">
          <mxGeometry y="90" width="180" height="30" as="geometry" />
        </mxCell>
        <mxCell id="hb6JNQIEblsWoCDhx1Lz-226" value="" style="shape=partialRectangle;connectable=0;fillColor=none;top=0;left=0;bottom=0;right=0;editable=1;overflow=hidden;whiteSpace=wrap;html=1;" vertex="1" parent="hb6JNQIEblsWoCDhx1Lz-225">
          <mxGeometry width="30" height="30" as="geometry">
            <mxRectangle width="30" height="30" as="alternateBounds" />
          </mxGeometry>
        </mxCell>
        <mxCell id="hb6JNQIEblsWoCDhx1Lz-227" value="apellido" style="shape=partialRectangle;connectable=0;fillColor=none;top=0;left=0;bottom=0;right=0;align=left;spacingLeft=6;overflow=hidden;whiteSpace=wrap;html=1;" vertex="1" parent="hb6JNQIEblsWoCDhx1Lz-225">
          <mxGeometry x="30" width="150" height="30" as="geometry">
            <mxRectangle width="150" height="30" as="alternateBounds" />
          </mxGeometry>
        </mxCell>
        <mxCell id="hb6JNQIEblsWoCDhx1Lz-228" value="" style="shape=tableRow;horizontal=0;startSize=0;swimlaneHead=0;swimlaneBody=0;fillColor=none;collapsible=0;dropTarget=0;points=[[0,0.5],[1,0.5]];portConstraint=eastwest;top=0;left=0;right=0;bottom=0;" vertex="1" parent="hb6JNQIEblsWoCDhx1Lz-218">
          <mxGeometry y="120" width="180" height="30" as="geometry" />
        </mxCell>
        <mxCell id="hb6JNQIEblsWoCDhx1Lz-229" value="" style="shape=partialRectangle;connectable=0;fillColor=none;top=0;left=0;bottom=0;right=0;editable=1;overflow=hidden;whiteSpace=wrap;html=1;" vertex="1" parent="hb6JNQIEblsWoCDhx1Lz-228">
          <mxGeometry width="30" height="30" as="geometry">
            <mxRectangle width="30" height="30" as="alternateBounds" />
          </mxGeometry>
        </mxCell>
        <mxCell id="hb6JNQIEblsWoCDhx1Lz-230" value="especialidad" style="shape=partialRectangle;connectable=0;fillColor=none;top=0;left=0;bottom=0;right=0;align=left;spacingLeft=6;overflow=hidden;whiteSpace=wrap;html=1;" vertex="1" parent="hb6JNQIEblsWoCDhx1Lz-228">
          <mxGeometry x="30" width="150" height="30" as="geometry">
            <mxRectangle width="150" height="30" as="alternateBounds" />
          </mxGeometry>
        </mxCell>
        <mxCell id="hb6JNQIEblsWoCDhx1Lz-231" value="" style="shape=tableRow;horizontal=0;startSize=0;swimlaneHead=0;swimlaneBody=0;fillColor=none;collapsible=0;dropTarget=0;points=[[0,0.5],[1,0.5]];portConstraint=eastwest;top=0;left=0;right=0;bottom=0;" vertex="1" parent="hb6JNQIEblsWoCDhx1Lz-218">
          <mxGeometry y="150" width="180" height="30" as="geometry" />
        </mxCell>
        <mxCell id="hb6JNQIEblsWoCDhx1Lz-232" value="" style="shape=partialRectangle;connectable=0;fillColor=none;top=0;left=0;bottom=0;right=0;editable=1;overflow=hidden;whiteSpace=wrap;html=1;" vertex="1" parent="hb6JNQIEblsWoCDhx1Lz-231">
          <mxGeometry width="30" height="30" as="geometry">
            <mxRectangle width="30" height="30" as="alternateBounds" />
          </mxGeometry>
        </mxCell>
        <mxCell id="hb6JNQIEblsWoCDhx1Lz-233" value="tajerta_profesional" style="shape=partialRectangle;connectable=0;fillColor=none;top=0;left=0;bottom=0;right=0;align=left;spacingLeft=6;overflow=hidden;whiteSpace=wrap;html=1;" vertex="1" parent="hb6JNQIEblsWoCDhx1Lz-231">
          <mxGeometry x="30" width="150" height="30" as="geometry">
            <mxRectangle width="150" height="30" as="alternateBounds" />
          </mxGeometry>
        </mxCell>
        <mxCell id="hb6JNQIEblsWoCDhx1Lz-234" value="" style="shape=tableRow;horizontal=0;startSize=0;swimlaneHead=0;swimlaneBody=0;fillColor=none;collapsible=0;dropTarget=0;points=[[0,0.5],[1,0.5]];portConstraint=eastwest;top=0;left=0;right=0;bottom=0;" vertex="1" parent="hb6JNQIEblsWoCDhx1Lz-218">
          <mxGeometry y="180" width="180" height="30" as="geometry" />
        </mxCell>
        <mxCell id="hb6JNQIEblsWoCDhx1Lz-235" value="" style="shape=partialRectangle;connectable=0;fillColor=none;top=0;left=0;bottom=0;right=0;editable=1;overflow=hidden;whiteSpace=wrap;html=1;" vertex="1" parent="hb6JNQIEblsWoCDhx1Lz-234">
          <mxGeometry width="30" height="30" as="geometry">
            <mxRectangle width="30" height="30" as="alternateBounds" />
          </mxGeometry>
        </mxCell>
        <mxCell id="hb6JNQIEblsWoCDhx1Lz-236" value="correo" style="shape=partialRectangle;connectable=0;fillColor=none;top=0;left=0;bottom=0;right=0;align=left;spacingLeft=6;overflow=hidden;whiteSpace=wrap;html=1;" vertex="1" parent="hb6JNQIEblsWoCDhx1Lz-234">
          <mxGeometry x="30" width="150" height="30" as="geometry">
            <mxRectangle width="150" height="30" as="alternateBounds" />
          </mxGeometry>
        </mxCell>
        <mxCell id="hb6JNQIEblsWoCDhx1Lz-240" value="" style="fontSize=12;html=1;endArrow=ERzeroToMany;endFill=1;rounded=0;" edge="1" parent="1">
          <mxGeometry width="100" height="100" relative="1" as="geometry">
            <mxPoint x="589" y="710" as="sourcePoint" />
            <mxPoint x="499" y="710" as="targetPoint" />
          </mxGeometry>
        </mxCell>
        <mxCell id="hb6JNQIEblsWoCDhx1Lz-241" value="N:1" style="text;html=1;align=center;verticalAlign=middle;resizable=0;points=[];autosize=1;strokeColor=none;fillColor=none;" vertex="1" parent="1">
          <mxGeometry x="530" y="710" width="40" height="30" as="geometry" />
        </mxCell>
        <mxCell id="hb6JNQIEblsWoCDhx1Lz-242" value="enfermeros" style="shape=table;startSize=30;container=1;collapsible=1;childLayout=tableLayout;fixedRows=1;rowLines=0;fontStyle=1;align=center;resizeLast=1;html=1;rounded=1;shadow=1;" vertex="1" parent="1">
          <mxGeometry x="1130" y="650" width="180" height="150" as="geometry" />
        </mxCell>
        <mxCell id="hb6JNQIEblsWoCDhx1Lz-243" value="" style="shape=tableRow;horizontal=0;startSize=0;swimlaneHead=0;swimlaneBody=0;fillColor=none;collapsible=0;dropTarget=0;points=[[0,0.5],[1,0.5]];portConstraint=eastwest;top=0;left=0;right=0;bottom=1;" vertex="1" parent="hb6JNQIEblsWoCDhx1Lz-242">
          <mxGeometry y="30" width="180" height="30" as="geometry" />
        </mxCell>
        <mxCell id="hb6JNQIEblsWoCDhx1Lz-244" value="PK" style="shape=partialRectangle;connectable=0;fillColor=none;top=0;left=0;bottom=0;right=0;fontStyle=1;overflow=hidden;whiteSpace=wrap;html=1;" vertex="1" parent="hb6JNQIEblsWoCDhx1Lz-243">
          <mxGeometry width="30" height="30" as="geometry">
            <mxRectangle width="30" height="30" as="alternateBounds" />
          </mxGeometry>
        </mxCell>
        <mxCell id="hb6JNQIEblsWoCDhx1Lz-245" value="id_enfermeros" style="shape=partialRectangle;connectable=0;fillColor=none;top=0;left=0;bottom=0;right=0;align=left;spacingLeft=6;fontStyle=5;overflow=hidden;whiteSpace=wrap;html=1;" vertex="1" parent="hb6JNQIEblsWoCDhx1Lz-243">
          <mxGeometry x="30" width="150" height="30" as="geometry">
            <mxRectangle width="150" height="30" as="alternateBounds" />
          </mxGeometry>
        </mxCell>
        <mxCell id="hb6JNQIEblsWoCDhx1Lz-246" value="" style="shape=tableRow;horizontal=0;startSize=0;swimlaneHead=0;swimlaneBody=0;fillColor=none;collapsible=0;dropTarget=0;points=[[0,0.5],[1,0.5]];portConstraint=eastwest;top=0;left=0;right=0;bottom=0;" vertex="1" parent="hb6JNQIEblsWoCDhx1Lz-242">
          <mxGeometry y="60" width="180" height="30" as="geometry" />
        </mxCell>
        <mxCell id="hb6JNQIEblsWoCDhx1Lz-247" value="" style="shape=partialRectangle;connectable=0;fillColor=none;top=0;left=0;bottom=0;right=0;editable=1;overflow=hidden;whiteSpace=wrap;html=1;" vertex="1" parent="hb6JNQIEblsWoCDhx1Lz-246">
          <mxGeometry width="30" height="30" as="geometry">
            <mxRectangle width="30" height="30" as="alternateBounds" />
          </mxGeometry>
        </mxCell>
        <mxCell id="hb6JNQIEblsWoCDhx1Lz-248" value="nombre" style="shape=partialRectangle;connectable=0;fillColor=none;top=0;left=0;bottom=0;right=0;align=left;spacingLeft=6;overflow=hidden;whiteSpace=wrap;html=1;" vertex="1" parent="hb6JNQIEblsWoCDhx1Lz-246">
          <mxGeometry x="30" width="150" height="30" as="geometry">
            <mxRectangle width="150" height="30" as="alternateBounds" />
          </mxGeometry>
        </mxCell>
        <mxCell id="hb6JNQIEblsWoCDhx1Lz-249" value="" style="shape=tableRow;horizontal=0;startSize=0;swimlaneHead=0;swimlaneBody=0;fillColor=none;collapsible=0;dropTarget=0;points=[[0,0.5],[1,0.5]];portConstraint=eastwest;top=0;left=0;right=0;bottom=0;" vertex="1" parent="hb6JNQIEblsWoCDhx1Lz-242">
          <mxGeometry y="90" width="180" height="30" as="geometry" />
        </mxCell>
        <mxCell id="hb6JNQIEblsWoCDhx1Lz-250" value="" style="shape=partialRectangle;connectable=0;fillColor=none;top=0;left=0;bottom=0;right=0;editable=1;overflow=hidden;whiteSpace=wrap;html=1;" vertex="1" parent="hb6JNQIEblsWoCDhx1Lz-249">
          <mxGeometry width="30" height="30" as="geometry">
            <mxRectangle width="30" height="30" as="alternateBounds" />
          </mxGeometry>
        </mxCell>
        <mxCell id="hb6JNQIEblsWoCDhx1Lz-251" value="apellido" style="shape=partialRectangle;connectable=0;fillColor=none;top=0;left=0;bottom=0;right=0;align=left;spacingLeft=6;overflow=hidden;whiteSpace=wrap;html=1;" vertex="1" parent="hb6JNQIEblsWoCDhx1Lz-249">
          <mxGeometry x="30" width="150" height="30" as="geometry">
            <mxRectangle width="150" height="30" as="alternateBounds" />
          </mxGeometry>
        </mxCell>
        <mxCell id="hb6JNQIEblsWoCDhx1Lz-252" value="" style="shape=tableRow;horizontal=0;startSize=0;swimlaneHead=0;swimlaneBody=0;fillColor=none;collapsible=0;dropTarget=0;points=[[0,0.5],[1,0.5]];portConstraint=eastwest;top=0;left=0;right=0;bottom=0;" vertex="1" parent="hb6JNQIEblsWoCDhx1Lz-242">
          <mxGeometry y="120" width="180" height="30" as="geometry" />
        </mxCell>
        <mxCell id="hb6JNQIEblsWoCDhx1Lz-253" value="" style="shape=partialRectangle;connectable=0;fillColor=none;top=0;left=0;bottom=0;right=0;editable=1;overflow=hidden;whiteSpace=wrap;html=1;" vertex="1" parent="hb6JNQIEblsWoCDhx1Lz-252">
          <mxGeometry width="30" height="30" as="geometry">
            <mxRectangle width="30" height="30" as="alternateBounds" />
          </mxGeometry>
        </mxCell>
        <mxCell id="hb6JNQIEblsWoCDhx1Lz-254" value="turno_asignado" style="shape=partialRectangle;connectable=0;fillColor=none;top=0;left=0;bottom=0;right=0;align=left;spacingLeft=6;overflow=hidden;whiteSpace=wrap;html=1;" vertex="1" parent="hb6JNQIEblsWoCDhx1Lz-252">
          <mxGeometry x="30" width="150" height="30" as="geometry">
            <mxRectangle width="150" height="30" as="alternateBounds" />
          </mxGeometry>
        </mxCell>
        <mxCell id="lvTp8gI4NO4fiL0DUp-w-3" value="&lt;b&gt;enfermeros&lt;/b&gt;" style="rounded=1;whiteSpace=wrap;html=1;shadow=1;" vertex="1" parent="1">
          <mxGeometry x="190" y="410" width="140" height="60" as="geometry" />
        </mxCell>
        <mxCell id="lvTp8gI4NO4fiL0DUp-w-4" value="" style="endArrow=none;html=1;rounded=0;" edge="1" parent="1">
          <mxGeometry width="50" height="50" relative="1" as="geometry">
            <mxPoint x="199.5" y="530" as="sourcePoint" />
            <mxPoint x="199.5" y="470" as="targetPoint" />
          </mxGeometry>
        </mxCell>
        <mxCell id="lvTp8gI4NO4fiL0DUp-w-5" value="documento" style="ellipse;whiteSpace=wrap;html=1;" vertex="1" parent="1">
          <mxGeometry x="164" y="521" width="60" height="40" as="geometry" />
        </mxCell>
        <mxCell id="lvTp8gI4NO4fiL0DUp-w-6" value="" style="endArrow=none;html=1;rounded=0;" edge="1" parent="1">
          <mxGeometry width="50" height="50" relative="1" as="geometry">
            <mxPoint x="312.5" y="530" as="sourcePoint" />
            <mxPoint x="312.5" y="470" as="targetPoint" />
          </mxGeometry>
        </mxCell>
        <mxCell id="lvTp8gI4NO4fiL0DUp-w-7" value="nombre" style="ellipse;whiteSpace=wrap;html=1;" vertex="1" parent="1">
          <mxGeometry x="284" y="520" width="60" height="40" as="geometry" />
        </mxCell>
        <mxCell id="lvTp8gI4NO4fiL0DUp-w-8" value="" style="endArrow=none;html=1;rounded=0;" edge="1" parent="1">
          <mxGeometry width="50" height="50" relative="1" as="geometry">
            <mxPoint x="230" y="580" as="sourcePoint" />
            <mxPoint x="230" y="470" as="targetPoint" />
          </mxGeometry>
        </mxCell>
        <mxCell id="lvTp8gI4NO4fiL0DUp-w-9" value="" style="endArrow=none;html=1;rounded=0;" edge="1" parent="1">
          <mxGeometry width="50" height="50" relative="1" as="geometry">
            <mxPoint x="278" y="580" as="sourcePoint" />
            <mxPoint x="278" y="470" as="targetPoint" />
          </mxGeometry>
        </mxCell>
        <mxCell id="lvTp8gI4NO4fiL0DUp-w-10" value="apellido" style="ellipse;whiteSpace=wrap;html=1;" vertex="1" parent="1">
          <mxGeometry x="196" y="560" width="60" height="40" as="geometry" />
        </mxCell>
        <mxCell id="lvTp8gI4NO4fiL0DUp-w-11" value="&lt;font style=&quot;font-size: 9px;&quot;&gt;turno_asignado&lt;/font&gt;" style="ellipse;whiteSpace=wrap;html=1;" vertex="1" parent="1">
          <mxGeometry x="257" y="561" width="70" height="39" as="geometry" />
        </mxCell>
        <mxCell id="lvTp8gI4NO4fiL0DUp-w-22" value="&lt;b&gt;procedimientos&lt;/b&gt;" style="rounded=1;whiteSpace=wrap;html=1;shadow=1;" vertex="1" parent="1">
          <mxGeometry x="365" y="410" width="145" height="60" as="geometry" />
        </mxCell>
        <mxCell id="lvTp8gI4NO4fiL0DUp-w-23" value="" style="endArrow=none;html=1;rounded=0;" edge="1" parent="1">
          <mxGeometry width="50" height="50" relative="1" as="geometry">
            <mxPoint x="379.5" y="530" as="sourcePoint" />
            <mxPoint x="379.5" y="470" as="targetPoint" />
          </mxGeometry>
        </mxCell>
        <mxCell id="lvTp8gI4NO4fiL0DUp-w-24" value="codigo" style="ellipse;whiteSpace=wrap;html=1;" vertex="1" parent="1">
          <mxGeometry x="353" y="520" width="60" height="40" as="geometry" />
        </mxCell>
        <mxCell id="lvTp8gI4NO4fiL0DUp-w-25" value="" style="endArrow=none;html=1;rounded=0;" edge="1" parent="1">
          <mxGeometry width="50" height="50" relative="1" as="geometry">
            <mxPoint x="420" y="580" as="sourcePoint" />
            <mxPoint x="420" y="470" as="targetPoint" />
          </mxGeometry>
        </mxCell>
        <mxCell id="lvTp8gI4NO4fiL0DUp-w-26" value="" style="endArrow=none;html=1;rounded=0;" edge="1" parent="1">
          <mxGeometry width="50" height="50" relative="1" as="geometry">
            <mxPoint x="454.5" y="580" as="sourcePoint" />
            <mxPoint x="454.5" y="470" as="targetPoint" />
          </mxGeometry>
        </mxCell>
        <mxCell id="lvTp8gI4NO4fiL0DUp-w-27" value="" style="endArrow=none;html=1;rounded=0;" edge="1" parent="1">
          <mxGeometry width="50" height="50" relative="1" as="geometry">
            <mxPoint x="490" y="530" as="sourcePoint" />
            <mxPoint x="490" y="470" as="targetPoint" />
          </mxGeometry>
        </mxCell>
        <mxCell id="lvTp8gI4NO4fiL0DUp-w-28" value="&lt;font style=&quot;font-size: 11px;&quot;&gt;descripcion&lt;/font&gt;" style="ellipse;whiteSpace=wrap;html=1;" vertex="1" parent="1">
          <mxGeometry x="379" y="561" width="60" height="40" as="geometry" />
        </mxCell>
        <mxCell id="lvTp8gI4NO4fiL0DUp-w-29" value="costo" style="ellipse;whiteSpace=wrap;html=1;" vertex="1" parent="1">
          <mxGeometry x="441" y="561" width="60" height="40" as="geometry" />
        </mxCell>
        <mxCell id="lvTp8gI4NO4fiL0DUp-w-30" value="nombre" style="ellipse;whiteSpace=wrap;html=1;" vertex="1" parent="1">
          <mxGeometry x="460" y="520" width="60" height="40" as="geometry" />
        </mxCell>
        <mxCell id="lvTp8gI4NO4fiL0DUp-w-31" value="" style="fontSize=12;html=1;endArrow=ERzeroToMany;endFill=1;rounded=0;" edge="1" parent="1">
          <mxGeometry width="100" height="100" relative="1" as="geometry">
            <mxPoint x="860" y="710" as="sourcePoint" />
            <mxPoint x="770" y="710" as="targetPoint" />
          </mxGeometry>
        </mxCell>
        <mxCell id="lvTp8gI4NO4fiL0DUp-w-32" value="N:1" style="text;html=1;align=center;verticalAlign=middle;resizable=0;points=[];autosize=1;strokeColor=none;fillColor=none;" vertex="1" parent="1">
          <mxGeometry x="800" y="710" width="40" height="30" as="geometry" />
        </mxCell>
        <mxCell id="lvTp8gI4NO4fiL0DUp-w-33" value="procedimientos" style="shape=table;startSize=30;container=1;collapsible=1;childLayout=tableLayout;fixedRows=1;rowLines=0;fontStyle=1;align=center;resizeLast=1;html=1;rounded=1;shadow=1;" vertex="1" parent="1">
          <mxGeometry x="590" y="650" width="180" height="150" as="geometry" />
        </mxCell>
        <mxCell id="lvTp8gI4NO4fiL0DUp-w-34" value="" style="shape=tableRow;horizontal=0;startSize=0;swimlaneHead=0;swimlaneBody=0;fillColor=none;collapsible=0;dropTarget=0;points=[[0,0.5],[1,0.5]];portConstraint=eastwest;top=0;left=0;right=0;bottom=1;" vertex="1" parent="lvTp8gI4NO4fiL0DUp-w-33">
          <mxGeometry y="30" width="180" height="30" as="geometry" />
        </mxCell>
        <mxCell id="lvTp8gI4NO4fiL0DUp-w-35" value="PK" style="shape=partialRectangle;connectable=0;fillColor=none;top=0;left=0;bottom=0;right=0;fontStyle=1;overflow=hidden;whiteSpace=wrap;html=1;" vertex="1" parent="lvTp8gI4NO4fiL0DUp-w-34">
          <mxGeometry width="30" height="30" as="geometry">
            <mxRectangle width="30" height="30" as="alternateBounds" />
          </mxGeometry>
        </mxCell>
        <mxCell id="lvTp8gI4NO4fiL0DUp-w-36" value="codigo" style="shape=partialRectangle;connectable=0;fillColor=none;top=0;left=0;bottom=0;right=0;align=left;spacingLeft=6;fontStyle=5;overflow=hidden;whiteSpace=wrap;html=1;" vertex="1" parent="lvTp8gI4NO4fiL0DUp-w-34">
          <mxGeometry x="30" width="150" height="30" as="geometry">
            <mxRectangle width="150" height="30" as="alternateBounds" />
          </mxGeometry>
        </mxCell>
        <mxCell id="lvTp8gI4NO4fiL0DUp-w-37" value="" style="shape=tableRow;horizontal=0;startSize=0;swimlaneHead=0;swimlaneBody=0;fillColor=none;collapsible=0;dropTarget=0;points=[[0,0.5],[1,0.5]];portConstraint=eastwest;top=0;left=0;right=0;bottom=0;" vertex="1" parent="lvTp8gI4NO4fiL0DUp-w-33">
          <mxGeometry y="60" width="180" height="30" as="geometry" />
        </mxCell>
        <mxCell id="lvTp8gI4NO4fiL0DUp-w-38" value="" style="shape=partialRectangle;connectable=0;fillColor=none;top=0;left=0;bottom=0;right=0;editable=1;overflow=hidden;whiteSpace=wrap;html=1;" vertex="1" parent="lvTp8gI4NO4fiL0DUp-w-37">
          <mxGeometry width="30" height="30" as="geometry">
            <mxRectangle width="30" height="30" as="alternateBounds" />
          </mxGeometry>
        </mxCell>
        <mxCell id="lvTp8gI4NO4fiL0DUp-w-39" value="nombre" style="shape=partialRectangle;connectable=0;fillColor=none;top=0;left=0;bottom=0;right=0;align=left;spacingLeft=6;overflow=hidden;whiteSpace=wrap;html=1;" vertex="1" parent="lvTp8gI4NO4fiL0DUp-w-37">
          <mxGeometry x="30" width="150" height="30" as="geometry">
            <mxRectangle width="150" height="30" as="alternateBounds" />
          </mxGeometry>
        </mxCell>
        <mxCell id="lvTp8gI4NO4fiL0DUp-w-40" value="" style="shape=tableRow;horizontal=0;startSize=0;swimlaneHead=0;swimlaneBody=0;fillColor=none;collapsible=0;dropTarget=0;points=[[0,0.5],[1,0.5]];portConstraint=eastwest;top=0;left=0;right=0;bottom=0;" vertex="1" parent="lvTp8gI4NO4fiL0DUp-w-33">
          <mxGeometry y="90" width="180" height="30" as="geometry" />
        </mxCell>
        <mxCell id="lvTp8gI4NO4fiL0DUp-w-41" value="" style="shape=partialRectangle;connectable=0;fillColor=none;top=0;left=0;bottom=0;right=0;editable=1;overflow=hidden;whiteSpace=wrap;html=1;" vertex="1" parent="lvTp8gI4NO4fiL0DUp-w-40">
          <mxGeometry width="30" height="30" as="geometry">
            <mxRectangle width="30" height="30" as="alternateBounds" />
          </mxGeometry>
        </mxCell>
        <mxCell id="lvTp8gI4NO4fiL0DUp-w-42" value="descripcion" style="shape=partialRectangle;connectable=0;fillColor=none;top=0;left=0;bottom=0;right=0;align=left;spacingLeft=6;overflow=hidden;whiteSpace=wrap;html=1;" vertex="1" parent="lvTp8gI4NO4fiL0DUp-w-40">
          <mxGeometry x="30" width="150" height="30" as="geometry">
            <mxRectangle width="150" height="30" as="alternateBounds" />
          </mxGeometry>
        </mxCell>
        <mxCell id="lvTp8gI4NO4fiL0DUp-w-43" value="" style="shape=tableRow;horizontal=0;startSize=0;swimlaneHead=0;swimlaneBody=0;fillColor=none;collapsible=0;dropTarget=0;points=[[0,0.5],[1,0.5]];portConstraint=eastwest;top=0;left=0;right=0;bottom=0;" vertex="1" parent="lvTp8gI4NO4fiL0DUp-w-33">
          <mxGeometry y="120" width="180" height="30" as="geometry" />
        </mxCell>
        <mxCell id="lvTp8gI4NO4fiL0DUp-w-44" value="" style="shape=partialRectangle;connectable=0;fillColor=none;top=0;left=0;bottom=0;right=0;editable=1;overflow=hidden;whiteSpace=wrap;html=1;" vertex="1" parent="lvTp8gI4NO4fiL0DUp-w-43">
          <mxGeometry width="30" height="30" as="geometry">
            <mxRectangle width="30" height="30" as="alternateBounds" />
          </mxGeometry>
        </mxCell>
        <mxCell id="lvTp8gI4NO4fiL0DUp-w-45" value="costo" style="shape=partialRectangle;connectable=0;fillColor=none;top=0;left=0;bottom=0;right=0;align=left;spacingLeft=6;overflow=hidden;whiteSpace=wrap;html=1;" vertex="1" parent="lvTp8gI4NO4fiL0DUp-w-43">
          <mxGeometry x="30" width="150" height="30" as="geometry">
            <mxRectangle width="150" height="30" as="alternateBounds" />
          </mxGeometry>
        </mxCell>
        <mxCell id="lvTp8gI4NO4fiL0DUp-w-52" value="" style="fontSize=12;html=1;endArrow=ERzeroToMany;endFill=1;rounded=0;" edge="1" parent="1">
          <mxGeometry width="100" height="100" relative="1" as="geometry">
            <mxPoint x="1130" y="710" as="sourcePoint" />
            <mxPoint x="1040" y="710" as="targetPoint" />
          </mxGeometry>
        </mxCell>
        <mxCell id="lvTp8gI4NO4fiL0DUp-w-53" value="N:1" style="text;html=1;align=center;verticalAlign=middle;resizable=0;points=[];autosize=1;strokeColor=none;fillColor=none;" vertex="1" parent="1">
          <mxGeometry x="1070" y="710" width="40" height="30" as="geometry" />
        </mxCell>
        <mxCell id="lvTp8gI4NO4fiL0DUp-w-54" value="receta" style="shape=table;startSize=30;container=1;collapsible=1;childLayout=tableLayout;fixedRows=1;rowLines=0;fontStyle=1;align=center;resizeLast=1;html=1;rounded=1;shadow=1;" vertex="1" parent="1">
          <mxGeometry x="1400" y="650" width="180" height="150" as="geometry" />
        </mxCell>
        <mxCell id="lvTp8gI4NO4fiL0DUp-w-55" value="" style="shape=tableRow;horizontal=0;startSize=0;swimlaneHead=0;swimlaneBody=0;fillColor=none;collapsible=0;dropTarget=0;points=[[0,0.5],[1,0.5]];portConstraint=eastwest;top=0;left=0;right=0;bottom=1;" vertex="1" parent="lvTp8gI4NO4fiL0DUp-w-54">
          <mxGeometry y="30" width="180" height="30" as="geometry" />
        </mxCell>
        <mxCell id="lvTp8gI4NO4fiL0DUp-w-56" value="PK" style="shape=partialRectangle;connectable=0;fillColor=none;top=0;left=0;bottom=0;right=0;fontStyle=1;overflow=hidden;whiteSpace=wrap;html=1;" vertex="1" parent="lvTp8gI4NO4fiL0DUp-w-55">
          <mxGeometry width="30" height="30" as="geometry">
            <mxRectangle width="30" height="30" as="alternateBounds" />
          </mxGeometry>
        </mxCell>
        <mxCell id="lvTp8gI4NO4fiL0DUp-w-57" value="id_receta" style="shape=partialRectangle;connectable=0;fillColor=none;top=0;left=0;bottom=0;right=0;align=left;spacingLeft=6;fontStyle=5;overflow=hidden;whiteSpace=wrap;html=1;" vertex="1" parent="lvTp8gI4NO4fiL0DUp-w-55">
          <mxGeometry x="30" width="150" height="30" as="geometry">
            <mxRectangle width="150" height="30" as="alternateBounds" />
          </mxGeometry>
        </mxCell>
        <mxCell id="lvTp8gI4NO4fiL0DUp-w-58" value="" style="shape=tableRow;horizontal=0;startSize=0;swimlaneHead=0;swimlaneBody=0;fillColor=none;collapsible=0;dropTarget=0;points=[[0,0.5],[1,0.5]];portConstraint=eastwest;top=0;left=0;right=0;bottom=0;" vertex="1" parent="lvTp8gI4NO4fiL0DUp-w-54">
          <mxGeometry y="60" width="180" height="30" as="geometry" />
        </mxCell>
        <mxCell id="lvTp8gI4NO4fiL0DUp-w-59" value="&lt;b&gt;FK&lt;/b&gt;" style="shape=partialRectangle;connectable=0;fillColor=none;top=0;left=0;bottom=0;right=0;editable=1;overflow=hidden;whiteSpace=wrap;html=1;" vertex="1" parent="lvTp8gI4NO4fiL0DUp-w-58">
          <mxGeometry width="30" height="30" as="geometry">
            <mxRectangle width="30" height="30" as="alternateBounds" />
          </mxGeometry>
        </mxCell>
        <mxCell id="lvTp8gI4NO4fiL0DUp-w-60" value="id_paciente" style="shape=partialRectangle;connectable=0;fillColor=none;top=0;left=0;bottom=0;right=0;align=left;spacingLeft=6;overflow=hidden;whiteSpace=wrap;html=1;" vertex="1" parent="lvTp8gI4NO4fiL0DUp-w-58">
          <mxGeometry x="30" width="150" height="30" as="geometry">
            <mxRectangle width="150" height="30" as="alternateBounds" />
          </mxGeometry>
        </mxCell>
        <mxCell id="lvTp8gI4NO4fiL0DUp-w-61" value="" style="shape=tableRow;horizontal=0;startSize=0;swimlaneHead=0;swimlaneBody=0;fillColor=none;collapsible=0;dropTarget=0;points=[[0,0.5],[1,0.5]];portConstraint=eastwest;top=0;left=0;right=0;bottom=0;" vertex="1" parent="lvTp8gI4NO4fiL0DUp-w-54">
          <mxGeometry y="90" width="180" height="30" as="geometry" />
        </mxCell>
        <mxCell id="lvTp8gI4NO4fiL0DUp-w-62" value="" style="shape=partialRectangle;connectable=0;fillColor=none;top=0;left=0;bottom=0;right=0;editable=1;overflow=hidden;whiteSpace=wrap;html=1;" vertex="1" parent="lvTp8gI4NO4fiL0DUp-w-61">
          <mxGeometry width="30" height="30" as="geometry">
            <mxRectangle width="30" height="30" as="alternateBounds" />
          </mxGeometry>
        </mxCell>
        <mxCell id="lvTp8gI4NO4fiL0DUp-w-63" value="fecha" style="shape=partialRectangle;connectable=0;fillColor=none;top=0;left=0;bottom=0;right=0;align=left;spacingLeft=6;overflow=hidden;whiteSpace=wrap;html=1;" vertex="1" parent="lvTp8gI4NO4fiL0DUp-w-61">
          <mxGeometry x="30" width="150" height="30" as="geometry">
            <mxRectangle width="150" height="30" as="alternateBounds" />
          </mxGeometry>
        </mxCell>
        <mxCell id="lvTp8gI4NO4fiL0DUp-w-67" value="" style="shape=tableRow;horizontal=0;startSize=0;swimlaneHead=0;swimlaneBody=0;fillColor=none;collapsible=0;dropTarget=0;points=[[0,0.5],[1,0.5]];portConstraint=eastwest;top=0;left=0;right=0;bottom=0;" vertex="1" parent="lvTp8gI4NO4fiL0DUp-w-54">
          <mxGeometry y="120" width="180" height="30" as="geometry" />
        </mxCell>
        <mxCell id="lvTp8gI4NO4fiL0DUp-w-68" value="&lt;b&gt;FK&lt;/b&gt;" style="shape=partialRectangle;connectable=0;fillColor=none;top=0;left=0;bottom=0;right=0;editable=1;overflow=hidden;whiteSpace=wrap;html=1;" vertex="1" parent="lvTp8gI4NO4fiL0DUp-w-67">
          <mxGeometry width="30" height="30" as="geometry">
            <mxRectangle width="30" height="30" as="alternateBounds" />
          </mxGeometry>
        </mxCell>
        <mxCell id="lvTp8gI4NO4fiL0DUp-w-69" value="id_medico" style="shape=partialRectangle;connectable=0;fillColor=none;top=0;left=0;bottom=0;right=0;align=left;spacingLeft=6;overflow=hidden;whiteSpace=wrap;html=1;" vertex="1" parent="lvTp8gI4NO4fiL0DUp-w-67">
          <mxGeometry x="30" width="150" height="30" as="geometry">
            <mxRectangle width="150" height="30" as="alternateBounds" />
          </mxGeometry>
        </mxCell>
        <mxCell id="lvTp8gI4NO4fiL0DUp-w-73" value="receta_medicamento" style="shape=table;startSize=30;container=1;collapsible=1;childLayout=tableLayout;fixedRows=1;rowLines=0;fontStyle=1;align=center;resizeLast=1;html=1;rounded=1;shadow=1;" vertex="1" parent="1">
          <mxGeometry x="1670" y="650" width="180" height="120" as="geometry" />
        </mxCell>
        <mxCell id="lvTp8gI4NO4fiL0DUp-w-74" value="" style="shape=tableRow;horizontal=0;startSize=0;swimlaneHead=0;swimlaneBody=0;fillColor=none;collapsible=0;dropTarget=0;points=[[0,0.5],[1,0.5]];portConstraint=eastwest;top=0;left=0;right=0;bottom=1;" vertex="1" parent="lvTp8gI4NO4fiL0DUp-w-73">
          <mxGeometry y="30" width="180" height="30" as="geometry" />
        </mxCell>
        <mxCell id="lvTp8gI4NO4fiL0DUp-w-75" value="PK, FK" style="shape=partialRectangle;connectable=0;fillColor=none;top=0;left=0;bottom=0;right=0;fontStyle=1;overflow=hidden;whiteSpace=wrap;html=1;" vertex="1" parent="lvTp8gI4NO4fiL0DUp-w-74">
          <mxGeometry width="30" height="30" as="geometry">
            <mxRectangle width="30" height="30" as="alternateBounds" />
          </mxGeometry>
        </mxCell>
        <mxCell id="lvTp8gI4NO4fiL0DUp-w-76" value="id_receta" style="shape=partialRectangle;connectable=0;fillColor=none;top=0;left=0;bottom=0;right=0;align=left;spacingLeft=6;fontStyle=5;overflow=hidden;whiteSpace=wrap;html=1;" vertex="1" parent="lvTp8gI4NO4fiL0DUp-w-74">
          <mxGeometry x="30" width="150" height="30" as="geometry">
            <mxRectangle width="150" height="30" as="alternateBounds" />
          </mxGeometry>
        </mxCell>
        <mxCell id="lvTp8gI4NO4fiL0DUp-w-77" value="" style="shape=tableRow;horizontal=0;startSize=0;swimlaneHead=0;swimlaneBody=0;fillColor=none;collapsible=0;dropTarget=0;points=[[0,0.5],[1,0.5]];portConstraint=eastwest;top=0;left=0;right=0;bottom=0;" vertex="1" parent="lvTp8gI4NO4fiL0DUp-w-73">
          <mxGeometry y="60" width="180" height="30" as="geometry" />
        </mxCell>
        <mxCell id="lvTp8gI4NO4fiL0DUp-w-78" value="&lt;b&gt;PK, FK&lt;/b&gt;" style="shape=partialRectangle;connectable=0;fillColor=none;top=0;left=0;bottom=0;right=0;editable=1;overflow=hidden;whiteSpace=wrap;html=1;align=center;" vertex="1" parent="lvTp8gI4NO4fiL0DUp-w-77">
          <mxGeometry width="30" height="30" as="geometry">
            <mxRectangle width="30" height="30" as="alternateBounds" />
          </mxGeometry>
        </mxCell>
        <mxCell id="lvTp8gI4NO4fiL0DUp-w-79" value="id_medicamento" style="shape=partialRectangle;connectable=0;fillColor=none;top=0;left=0;bottom=0;right=0;align=left;spacingLeft=6;overflow=hidden;whiteSpace=wrap;html=1;" vertex="1" parent="lvTp8gI4NO4fiL0DUp-w-77">
          <mxGeometry x="30" width="150" height="30" as="geometry">
            <mxRectangle width="150" height="30" as="alternateBounds" />
          </mxGeometry>
        </mxCell>
        <mxCell id="lvTp8gI4NO4fiL0DUp-w-80" value="" style="shape=tableRow;horizontal=0;startSize=0;swimlaneHead=0;swimlaneBody=0;fillColor=none;collapsible=0;dropTarget=0;points=[[0,0.5],[1,0.5]];portConstraint=eastwest;top=0;left=0;right=0;bottom=0;" vertex="1" parent="lvTp8gI4NO4fiL0DUp-w-73">
          <mxGeometry y="90" width="180" height="30" as="geometry" />
        </mxCell>
        <mxCell id="lvTp8gI4NO4fiL0DUp-w-81" value="" style="shape=partialRectangle;connectable=0;fillColor=none;top=0;left=0;bottom=0;right=0;editable=1;overflow=hidden;whiteSpace=wrap;html=1;" vertex="1" parent="lvTp8gI4NO4fiL0DUp-w-80">
          <mxGeometry width="30" height="30" as="geometry">
            <mxRectangle width="30" height="30" as="alternateBounds" />
          </mxGeometry>
        </mxCell>
        <mxCell id="lvTp8gI4NO4fiL0DUp-w-82" value="cantidad" style="shape=partialRectangle;connectable=0;fillColor=none;top=0;left=0;bottom=0;right=0;align=left;spacingLeft=6;overflow=hidden;whiteSpace=wrap;html=1;" vertex="1" parent="lvTp8gI4NO4fiL0DUp-w-80">
          <mxGeometry x="30" width="150" height="30" as="geometry">
            <mxRectangle width="150" height="30" as="alternateBounds" />
          </mxGeometry>
        </mxCell>
        <mxCell id="lvTp8gI4NO4fiL0DUp-w-92" value="" style="edgeStyle=entityRelationEdgeStyle;fontSize=12;html=1;endArrow=ERzeroToMany;endFill=1;rounded=0;entryX=-0.004;entryY=-0.013;entryDx=0;entryDy=0;entryPerimeter=0;" edge="1" parent="1">
          <mxGeometry width="100" height="100" relative="1" as="geometry">
            <mxPoint x="1310.72" y="710.3899999999999" as="sourcePoint" />
            <mxPoint x="1400" y="710" as="targetPoint" />
          </mxGeometry>
        </mxCell>
        <mxCell id="lvTp8gI4NO4fiL0DUp-w-93" value="" style="edgeStyle=entityRelationEdgeStyle;fontSize=12;html=1;endArrow=ERzeroToMany;endFill=1;rounded=0;entryX=-0.004;entryY=-0.013;entryDx=0;entryDy=0;entryPerimeter=0;" edge="1" parent="1">
          <mxGeometry width="100" height="100" relative="1" as="geometry">
            <mxPoint x="1580.72" y="710.3899999999999" as="sourcePoint" />
            <mxPoint x="1670" y="710" as="targetPoint" />
          </mxGeometry>
        </mxCell>
        <mxCell id="lvTp8gI4NO4fiL0DUp-w-94" value="1:N" style="text;html=1;align=center;verticalAlign=middle;resizable=0;points=[];autosize=1;strokeColor=none;fillColor=none;" vertex="1" parent="1">
          <mxGeometry x="1340" y="710" width="40" height="30" as="geometry" />
        </mxCell>
        <mxCell id="lvTp8gI4NO4fiL0DUp-w-95" value="1:N" style="text;html=1;align=center;verticalAlign=middle;resizable=0;points=[];autosize=1;strokeColor=none;fillColor=none;" vertex="1" parent="1">
          <mxGeometry x="1610" y="710" width="40" height="30" as="geometry" />
        </mxCell>
        <mxCell id="lvTp8gI4NO4fiL0DUp-w-96" value="medicamento" style="shape=table;startSize=30;container=1;collapsible=1;childLayout=tableLayout;fixedRows=1;rowLines=0;fontStyle=1;align=center;resizeLast=1;html=1;rounded=1;shadow=1;" vertex="1" parent="1">
          <mxGeometry x="1940" y="650" width="180" height="180" as="geometry" />
        </mxCell>
        <mxCell id="lvTp8gI4NO4fiL0DUp-w-97" value="" style="shape=tableRow;horizontal=0;startSize=0;swimlaneHead=0;swimlaneBody=0;fillColor=none;collapsible=0;dropTarget=0;points=[[0,0.5],[1,0.5]];portConstraint=eastwest;top=0;left=0;right=0;bottom=1;" vertex="1" parent="lvTp8gI4NO4fiL0DUp-w-96">
          <mxGeometry y="30" width="180" height="30" as="geometry" />
        </mxCell>
        <mxCell id="lvTp8gI4NO4fiL0DUp-w-98" value="PK" style="shape=partialRectangle;connectable=0;fillColor=none;top=0;left=0;bottom=0;right=0;fontStyle=1;overflow=hidden;whiteSpace=wrap;html=1;" vertex="1" parent="lvTp8gI4NO4fiL0DUp-w-97">
          <mxGeometry width="30" height="30" as="geometry">
            <mxRectangle width="30" height="30" as="alternateBounds" />
          </mxGeometry>
        </mxCell>
        <mxCell id="lvTp8gI4NO4fiL0DUp-w-99" value="id_medicamento" style="shape=partialRectangle;connectable=0;fillColor=none;top=0;left=0;bottom=0;right=0;align=left;spacingLeft=6;fontStyle=5;overflow=hidden;whiteSpace=wrap;html=1;" vertex="1" parent="lvTp8gI4NO4fiL0DUp-w-97">
          <mxGeometry x="30" width="150" height="30" as="geometry">
            <mxRectangle width="150" height="30" as="alternateBounds" />
          </mxGeometry>
        </mxCell>
        <mxCell id="lvTp8gI4NO4fiL0DUp-w-100" value="" style="shape=tableRow;horizontal=0;startSize=0;swimlaneHead=0;swimlaneBody=0;fillColor=none;collapsible=0;dropTarget=0;points=[[0,0.5],[1,0.5]];portConstraint=eastwest;top=0;left=0;right=0;bottom=0;" vertex="1" parent="lvTp8gI4NO4fiL0DUp-w-96">
          <mxGeometry y="60" width="180" height="30" as="geometry" />
        </mxCell>
        <mxCell id="lvTp8gI4NO4fiL0DUp-w-101" value="" style="shape=partialRectangle;connectable=0;fillColor=none;top=0;left=0;bottom=0;right=0;editable=1;overflow=hidden;whiteSpace=wrap;html=1;" vertex="1" parent="lvTp8gI4NO4fiL0DUp-w-100">
          <mxGeometry width="30" height="30" as="geometry">
            <mxRectangle width="30" height="30" as="alternateBounds" />
          </mxGeometry>
        </mxCell>
        <mxCell id="lvTp8gI4NO4fiL0DUp-w-102" value="nombre" style="shape=partialRectangle;connectable=0;fillColor=none;top=0;left=0;bottom=0;right=0;align=left;spacingLeft=6;overflow=hidden;whiteSpace=wrap;html=1;" vertex="1" parent="lvTp8gI4NO4fiL0DUp-w-100">
          <mxGeometry x="30" width="150" height="30" as="geometry">
            <mxRectangle width="150" height="30" as="alternateBounds" />
          </mxGeometry>
        </mxCell>
        <mxCell id="lvTp8gI4NO4fiL0DUp-w-103" value="" style="shape=tableRow;horizontal=0;startSize=0;swimlaneHead=0;swimlaneBody=0;fillColor=none;collapsible=0;dropTarget=0;points=[[0,0.5],[1,0.5]];portConstraint=eastwest;top=0;left=0;right=0;bottom=0;" vertex="1" parent="lvTp8gI4NO4fiL0DUp-w-96">
          <mxGeometry y="90" width="180" height="30" as="geometry" />
        </mxCell>
        <mxCell id="lvTp8gI4NO4fiL0DUp-w-104" value="" style="shape=partialRectangle;connectable=0;fillColor=none;top=0;left=0;bottom=0;right=0;editable=1;overflow=hidden;whiteSpace=wrap;html=1;" vertex="1" parent="lvTp8gI4NO4fiL0DUp-w-103">
          <mxGeometry width="30" height="30" as="geometry">
            <mxRectangle width="30" height="30" as="alternateBounds" />
          </mxGeometry>
        </mxCell>
        <mxCell id="lvTp8gI4NO4fiL0DUp-w-105" value="descripcion" style="shape=partialRectangle;connectable=0;fillColor=none;top=0;left=0;bottom=0;right=0;align=left;spacingLeft=6;overflow=hidden;whiteSpace=wrap;html=1;" vertex="1" parent="lvTp8gI4NO4fiL0DUp-w-103">
          <mxGeometry x="30" width="150" height="30" as="geometry">
            <mxRectangle width="150" height="30" as="alternateBounds" />
          </mxGeometry>
        </mxCell>
        <mxCell id="lvTp8gI4NO4fiL0DUp-w-106" value="" style="shape=tableRow;horizontal=0;startSize=0;swimlaneHead=0;swimlaneBody=0;fillColor=none;collapsible=0;dropTarget=0;points=[[0,0.5],[1,0.5]];portConstraint=eastwest;top=0;left=0;right=0;bottom=0;" vertex="1" parent="lvTp8gI4NO4fiL0DUp-w-96">
          <mxGeometry y="120" width="180" height="30" as="geometry" />
        </mxCell>
        <mxCell id="lvTp8gI4NO4fiL0DUp-w-107" value="" style="shape=partialRectangle;connectable=0;fillColor=none;top=0;left=0;bottom=0;right=0;editable=1;overflow=hidden;whiteSpace=wrap;html=1;" vertex="1" parent="lvTp8gI4NO4fiL0DUp-w-106">
          <mxGeometry width="30" height="30" as="geometry">
            <mxRectangle width="30" height="30" as="alternateBounds" />
          </mxGeometry>
        </mxCell>
        <mxCell id="lvTp8gI4NO4fiL0DUp-w-108" value="laboratorio" style="shape=partialRectangle;connectable=0;fillColor=none;top=0;left=0;bottom=0;right=0;align=left;spacingLeft=6;overflow=hidden;whiteSpace=wrap;html=1;" vertex="1" parent="lvTp8gI4NO4fiL0DUp-w-106">
          <mxGeometry x="30" width="150" height="30" as="geometry">
            <mxRectangle width="150" height="30" as="alternateBounds" />
          </mxGeometry>
        </mxCell>
        <mxCell id="lvTp8gI4NO4fiL0DUp-w-109" value="" style="shape=tableRow;horizontal=0;startSize=0;swimlaneHead=0;swimlaneBody=0;fillColor=none;collapsible=0;dropTarget=0;points=[[0,0.5],[1,0.5]];portConstraint=eastwest;top=0;left=0;right=0;bottom=0;" vertex="1" parent="lvTp8gI4NO4fiL0DUp-w-96">
          <mxGeometry y="150" width="180" height="30" as="geometry" />
        </mxCell>
        <mxCell id="lvTp8gI4NO4fiL0DUp-w-110" value="" style="shape=partialRectangle;connectable=0;fillColor=none;top=0;left=0;bottom=0;right=0;editable=1;overflow=hidden;whiteSpace=wrap;html=1;" vertex="1" parent="lvTp8gI4NO4fiL0DUp-w-109">
          <mxGeometry width="30" height="30" as="geometry">
            <mxRectangle width="30" height="30" as="alternateBounds" />
          </mxGeometry>
        </mxCell>
        <mxCell id="lvTp8gI4NO4fiL0DUp-w-111" value="precio_unitario" style="shape=partialRectangle;connectable=0;fillColor=none;top=0;left=0;bottom=0;right=0;align=left;spacingLeft=6;overflow=hidden;whiteSpace=wrap;html=1;" vertex="1" parent="lvTp8gI4NO4fiL0DUp-w-109">
          <mxGeometry x="30" width="150" height="30" as="geometry">
            <mxRectangle width="150" height="30" as="alternateBounds" />
          </mxGeometry>
        </mxCell>
        <mxCell id="lvTp8gI4NO4fiL0DUp-w-112" value="" style="fontSize=12;html=1;endArrow=ERzeroToMany;endFill=1;rounded=0;" edge="1" parent="1">
          <mxGeometry width="100" height="100" relative="1" as="geometry">
            <mxPoint x="1940" y="710" as="sourcePoint" />
            <mxPoint x="1850" y="710" as="targetPoint" />
          </mxGeometry>
        </mxCell>
        <mxCell id="lvTp8gI4NO4fiL0DUp-w-113" value="N:1" style="text;html=1;align=center;verticalAlign=middle;resizable=0;points=[];autosize=1;strokeColor=none;fillColor=none;" vertex="1" parent="1">
          <mxGeometry x="1880" y="710" width="40" height="30" as="geometry" />
        </mxCell>
      </root>
    </mxGraphModel>
  </diagram>
</mxfile>
